<svg width="382" height="315" viewBox="0 0 382 315" fill="none" xmlns="http://www.w3.org/2000/svg">
<g filter="url(#filter0_d_4484_8410)">
<path d="M200.28 108C200.28 94.1929 189.087 83 175.28 83C161.473 83 150.28 94.1929 150.28 108C150.28 121.807 161.473 133 175.28 133C189.087 133 200.28 121.807 200.28 108Z" fill="#77C2C3"/>
</g>
<path d="M197.347 108C197.347 95.833 187.45 85.9344 175.283 85.9316C175.283 85.9316 175.283 85.9316 175.282 85.9316C163.115 85.933 153.218 95.8316 153.218 108C153.218 120.168 163.102 130.052 175.258 130.066C175.266 130.066 175.275 130.066 175.283 130.066C175.283 130.066 175.283 130.066 175.284 130.066C175.293 130.066 175.301 130.066 175.309 130.066C187.465 130.051 197.35 120.158 197.35 108H197.347ZM175.28 128.677C163.879 128.677 154.604 119.401 154.604 108C154.604 96.5983 163.879 87.3219 175.28 87.3219C186.682 87.3219 195.957 96.5983 195.957 108C195.957 119.401 186.682 128.677 175.279 128.677H175.28Z" fill="#FFFAFA"/>
<path d="M193.822 108C193.822 97.7765 185.506 89.4598 175.283 89.457C175.283 89.457 175.283 89.457 175.282 89.457C165.058 89.4584 156.743 97.7765 156.743 108C156.743 118.224 165.049 126.529 175.263 126.542C175.263 126.542 175.276 126.542 175.283 126.542C175.283 126.542 175.283 126.542 175.285 126.542C175.292 126.542 175.299 126.542 175.306 126.542C185.52 126.529 193.825 118.215 193.825 107.999L193.822 108ZM176.75 90.9098C185.325 91.6404 192.068 98.6862 192.414 107.306H188.496C183.053 107.306 178.114 104.088 175.914 99.107C176.625 97.3348 176.986 95.4695 176.986 93.557C176.986 92.6723 176.907 91.7848 176.75 90.9098ZM176.914 110.508C177.122 110.64 177.343 110.765 177.578 110.883C177.733 110.963 177.895 111.038 178.063 111.11C178.313 111.218 178.576 111.318 178.853 111.41C178.543 111.681 178.245 111.964 177.957 112.26C177.814 112.408 177.674 112.56 177.536 112.714C177.399 112.868 177.264 113.026 177.133 113.186V112.428C177.133 111.774 177.056 111.132 176.915 110.507L176.914 110.508ZM177.161 109.593L176.551 108.007L177.374 106.089C177.59 105.929 177.81 105.785 178.028 105.657C178.372 105.456 178.665 105.32 178.87 105.235C180.381 106.479 182.114 107.417 183.968 108C182.225 108.549 180.583 109.413 179.138 110.549C178.399 110.303 177.736 109.982 177.163 109.592L177.161 109.593ZM177.233 102.935C177.345 103.068 177.458 103.199 177.574 103.328C177.92 103.715 178.286 104.082 178.67 104.428C178.581 104.463 178.474 104.507 178.35 104.563C178.268 104.6 178.178 104.642 178.083 104.69C177.94 104.763 177.782 104.847 177.613 104.946C177.47 105.029 177.332 105.118 177.196 105.21C177.15 105.24 177.104 105.27 177.06 105.301C177.082 105.182 177.103 105.064 177.121 104.949C177.157 104.717 177.182 104.495 177.201 104.282C177.211 104.175 177.218 104.072 177.225 103.972C177.238 103.771 177.243 103.582 177.243 103.408C177.243 103.235 177.24 103.075 177.235 102.935H177.233ZM175.281 115.058C174.972 114.508 174.628 113.975 174.251 113.465V112.429C174.251 111.785 174.331 111.14 174.489 110.511C174.768 110.299 175.032 110.067 175.281 109.818C175.529 110.067 175.793 110.299 176.072 110.511C176.231 111.14 176.31 111.785 176.31 112.429V113.465C175.933 113.975 175.589 114.508 175.281 115.058ZM175.281 100.942C175.586 101.486 175.925 102.014 176.297 102.518C176.345 102.928 176.432 104.071 176.143 105.397C175.839 105.653 175.551 105.929 175.281 106.225C175.01 105.929 174.722 105.651 174.418 105.397C174.129 104.071 174.217 102.928 174.264 102.518C174.635 102.014 174.975 101.486 175.281 100.942ZM175.281 108.463L175 108.007L175.281 107.582L175.561 108.007L175.281 108.463ZM175.786 108.457C175.922 108.71 176.045 108.971 176.154 109.236C176.19 109.325 176.226 109.414 176.26 109.504C175.995 109.276 175.757 109.038 175.543 108.789C175.628 108.679 175.71 108.568 175.786 108.456V108.457ZM175.018 108.789C174.804 109.036 174.567 109.276 174.301 109.504C174.335 109.414 174.37 109.325 174.407 109.236C174.517 108.97 174.639 108.71 174.775 108.457C174.851 108.57 174.933 108.681 175.018 108.79V108.789ZM175.106 107.29C174.999 107.436 174.897 107.586 174.8 107.738C174.658 107.492 174.535 107.245 174.428 106.996C174.321 106.747 174.228 106.5 174.15 106.254C174.499 106.572 174.817 106.92 175.106 107.29ZM176.133 106.997C176.026 107.246 175.903 107.493 175.761 107.739C175.664 107.586 175.563 107.438 175.456 107.292C175.743 106.921 176.063 106.574 176.411 106.256C176.333 106.501 176.242 106.75 176.133 106.997ZM175.195 91.0612C175.224 91.0612 175.253 91.0612 175.282 91.0612C175.31 91.0612 175.338 91.0612 175.367 91.0612C175.52 91.882 175.597 92.7195 175.597 93.557C175.597 94.5487 175.492 95.5279 175.281 96.482C175.071 95.5279 174.964 94.5501 174.964 93.557C174.964 92.7195 175.042 91.882 175.195 91.0612ZM173.811 90.9098C173.654 91.7834 173.575 92.6709 173.575 93.557C173.575 95.4681 173.936 97.3348 174.647 99.107C172.447 104.088 167.508 107.307 162.065 107.307H158.147C158.493 98.689 165.238 91.6418 173.811 90.9112V90.9098ZM173.4 109.593C172.826 109.983 172.164 110.304 171.425 110.55C169.979 109.414 168.339 108.55 166.595 108.001C168.449 107.42 170.182 106.482 171.693 105.236C171.897 105.321 172.19 105.457 172.535 105.658C172.751 105.785 172.971 105.931 173.189 106.09L174.011 108.008L173.401 109.595L173.4 109.593ZM173.647 110.508C173.507 111.132 173.429 111.775 173.429 112.429V113.188C173.299 113.026 173.164 112.87 173.026 112.715C172.889 112.561 172.749 112.41 172.606 112.261C172.318 111.965 172.02 111.681 171.71 111.411C171.986 111.32 172.25 111.218 172.5 111.111C172.667 111.039 172.828 110.964 172.985 110.885C173.218 110.767 173.439 110.642 173.649 110.51L173.647 110.508ZM173.339 103.972C173.345 104.072 173.353 104.176 173.363 104.282C173.382 104.495 173.407 104.718 173.443 104.949C173.461 105.064 173.481 105.182 173.504 105.301C173.46 105.271 173.414 105.24 173.368 105.21C173.232 105.118 173.095 105.029 172.951 104.946C172.782 104.847 172.625 104.763 172.481 104.69C172.385 104.642 172.296 104.6 172.214 104.563C172.09 104.507 171.983 104.463 171.895 104.428C172.278 104.082 172.643 103.714 172.99 103.328C173.106 103.199 173.22 103.068 173.331 102.935C173.325 103.076 173.322 103.235 173.322 103.408C173.322 103.582 173.329 103.771 173.34 103.972H173.339ZM173.811 125.09C165.236 124.36 158.493 117.314 158.147 108.695H162.065C167.508 108.695 172.447 111.913 174.647 116.895C173.936 118.667 173.575 120.532 173.575 122.445C173.575 123.329 173.654 124.217 173.811 125.092V125.09ZM175.367 124.939C175.338 124.939 175.308 124.939 175.279 124.939C175.251 124.939 175.224 124.939 175.196 124.939C175.043 124.118 174.965 123.281 174.965 122.443C174.965 121.451 175.071 120.472 175.282 119.518C175.492 120.472 175.599 121.45 175.599 122.443C175.599 123.281 175.521 124.118 175.368 124.939H175.367ZM176.75 125.09C176.907 124.217 176.986 123.329 176.986 122.443C176.986 120.532 176.625 118.665 175.914 116.893C178.114 111.913 183.053 108.693 188.496 108.693H192.414C192.068 117.311 185.324 124.358 176.75 125.089V125.09Z" fill="#FFFAFA"/>
<defs>
<filter id="filter0_d_4484_8410" x="0.000277519" y="-67.28" width="381.96" height="381.96" filterUnits="userSpaceOnUse" color-interpolation-filters="sRGB">
<feFlood flood-opacity="0" result="BackgroundImageFix"/>
<feColorMatrix in="SourceAlpha" type="matrix" values="0 0 0 0 0 0 0 0 0 0 0 0 0 0 0 0 0 0 127 0" result="hardAlpha"/>
<feOffset dx="15.7" dy="15.7"/>
<feGaussianBlur stdDeviation="82.99"/>
<feColorMatrix type="matrix" values="0 0 0 0 0 0 0 0 0 0 0 0 0 0 0 0 0 0 0.13 0"/>
<feBlend mode="normal" in2="BackgroundImageFix" result="effect1_dropShadow_4484_8410"/>
<feBlend mode="normal" in="SourceGraphic" in2="effect1_dropShadow_4484_8410" result="shape"/>
</filter>
</defs>
</svg>
