<svg width="352" height="352" viewBox="0 0 352 352" fill="none" xmlns="http://www.w3.org/2000/svg">
<rect x="150.28" y="150.279" width="34" height="20" rx="10" fill="#5D9A9A"/>
<rect x="150.78" y="150.779" width="33" height="19" rx="9.5" stroke="url(#paint0_linear_4571_12309)" stroke-opacity="0.8"/>
<g filter="url(#filter0_d_4571_12309)">
<path d="M170.28 160.279C170.28 154.756 165.803 150.279 160.28 150.279C154.757 150.279 150.28 154.756 150.28 160.279C150.28 165.802 154.757 170.279 160.28 170.279C165.803 170.279 170.28 165.802 170.28 160.279Z" fill="white"/>
</g>
<path d="M169.106 160.278C169.106 155.412 165.147 151.452 160.281 151.451C160.281 151.451 160.281 151.451 160.28 151.451C155.413 151.452 151.455 155.411 151.455 160.278C151.455 165.146 155.408 169.1 160.271 169.105C160.274 169.105 160.277 169.105 160.281 169.105C160.281 169.105 160.281 169.105 160.281 169.105C160.285 169.105 160.288 169.105 160.291 169.105C165.153 169.099 169.107 165.142 169.107 160.278H169.106ZM160.28 168.55C155.719 168.55 152.009 164.839 152.009 160.278C152.009 155.718 155.719 152.007 160.28 152.007C164.84 152.007 168.55 155.718 168.55 160.278C168.55 164.839 164.84 168.55 160.279 168.55H160.28Z" fill="#77C2C3"/>
<path d="M167.696 160.279C167.696 156.189 164.37 152.862 160.281 152.861C160.281 152.861 160.281 152.861 160.28 152.861C156.191 152.862 152.865 156.189 152.865 160.279C152.865 164.368 156.187 167.69 160.273 167.695C160.273 167.695 160.278 167.695 160.281 167.695C160.281 167.695 160.281 167.695 160.281 167.695C160.284 167.695 160.287 167.695 160.29 167.695C164.375 167.69 167.698 164.365 167.698 160.278L167.696 160.279ZM160.868 153.442C164.298 153.735 166.995 156.553 167.133 160.001H165.566C163.389 160.001 161.413 158.714 160.533 156.721C160.818 156.012 160.962 155.266 160.962 154.501C160.962 154.147 160.93 153.792 160.868 153.442ZM160.933 161.282C161.016 161.335 161.105 161.385 161.199 161.432C161.261 161.464 161.325 161.494 161.393 161.522C161.493 161.566 161.598 161.606 161.709 161.642C161.585 161.751 161.465 161.864 161.35 161.982C161.293 162.042 161.237 162.102 161.182 162.164C161.127 162.226 161.073 162.289 161.021 162.353V162.05C161.021 161.788 160.99 161.531 160.934 161.281L160.933 161.282ZM161.032 160.916L160.788 160.281L161.117 159.514C161.204 159.45 161.291 159.392 161.379 159.341C161.516 159.261 161.634 159.206 161.715 159.172C162.32 159.67 163.013 160.045 163.755 160.279C163.058 160.498 162.401 160.844 161.823 161.298C161.527 161.2 161.262 161.071 161.033 160.915L161.032 160.916ZM161.061 158.252C161.105 158.306 161.151 158.358 161.197 158.41C161.335 158.565 161.482 158.711 161.635 158.85C161.6 158.864 161.557 158.881 161.508 158.904C161.475 158.919 161.439 158.935 161.401 158.955C161.344 158.984 161.28 159.017 161.213 159.057C161.155 159.09 161.1 159.126 161.046 159.162C161.028 159.175 161.009 159.186 160.991 159.199C161 159.151 161.009 159.104 161.016 159.058C161.03 158.965 161.04 158.876 161.048 158.791C161.052 158.749 161.055 158.707 161.058 158.667C161.063 158.587 161.065 158.511 161.065 158.442C161.065 158.372 161.064 158.309 161.061 158.252H161.061ZM160.28 163.102C160.156 162.882 160.019 162.669 159.868 162.465V162.05C159.868 161.792 159.9 161.535 159.963 161.283C160.075 161.198 160.18 161.105 160.28 161.006C160.379 161.105 160.485 161.198 160.596 161.283C160.66 161.535 160.691 161.792 160.691 162.05V162.465C160.541 162.669 160.403 162.882 160.28 163.102ZM160.28 157.455C160.402 157.673 160.538 157.884 160.686 158.086C160.705 158.25 160.74 158.707 160.625 159.237C160.503 159.34 160.388 159.45 160.28 159.569C160.171 159.45 160.056 159.339 159.935 159.237C159.819 158.707 159.854 158.25 159.873 158.086C160.021 157.884 160.158 157.673 160.28 157.455ZM160.28 160.464L160.168 160.281L160.28 160.111L160.392 160.281L160.28 160.464ZM160.482 160.461C160.536 160.562 160.585 160.667 160.629 160.773C160.644 160.809 160.658 160.844 160.671 160.88C160.565 160.789 160.47 160.694 160.385 160.594C160.419 160.55 160.451 160.506 160.482 160.461V160.461ZM160.175 160.594C160.089 160.693 159.994 160.789 159.888 160.88C159.901 160.844 159.915 160.809 159.93 160.773C159.974 160.666 160.023 160.562 160.078 160.461C160.108 160.506 160.141 160.551 160.175 160.595V160.594ZM160.21 159.995C160.167 160.053 160.126 160.113 160.088 160.174C160.031 160.075 159.981 159.976 159.939 159.877C159.896 159.777 159.859 159.679 159.828 159.58C159.967 159.707 160.094 159.846 160.21 159.995ZM160.621 159.877C160.578 159.977 160.529 160.076 160.472 160.174C160.433 160.113 160.393 160.054 160.35 159.995C160.465 159.847 160.593 159.708 160.732 159.581C160.701 159.679 160.664 159.779 160.621 159.877ZM160.245 153.503C160.257 153.503 160.269 153.503 160.28 153.503C160.291 153.503 160.303 153.503 160.314 153.503C160.375 153.831 160.406 154.166 160.406 154.501C160.406 154.898 160.364 155.29 160.28 155.671C160.196 155.29 160.153 154.899 160.153 154.501C160.153 154.166 160.184 153.831 160.245 153.503ZM159.692 153.442C159.629 153.792 159.598 154.147 159.598 154.501C159.598 155.266 159.742 156.012 160.026 156.721C159.146 158.714 157.171 160.001 154.994 160.001H153.426C153.565 156.554 156.263 153.735 159.692 153.443V153.442ZM159.528 160.916C159.298 161.072 159.033 161.2 158.738 161.299C158.159 160.844 157.503 160.499 156.805 160.279C157.547 160.046 158.24 159.671 158.845 159.173C158.926 159.207 159.044 159.261 159.181 159.342C159.268 159.392 159.356 159.451 159.443 159.515L159.772 160.282L159.528 160.916L159.528 160.916ZM159.626 161.282C159.57 161.531 159.539 161.789 159.539 162.05V162.354C159.487 162.289 159.433 162.226 159.378 162.165C159.323 162.103 159.267 162.042 159.21 161.983C159.095 161.865 158.975 161.751 158.851 161.643C158.962 161.606 159.068 161.566 159.168 161.523C159.234 161.494 159.299 161.464 159.361 161.432C159.455 161.385 159.543 161.335 159.627 161.282L159.626 161.282ZM159.503 158.667C159.505 158.707 159.509 158.749 159.513 158.791C159.52 158.876 159.53 158.966 159.545 159.058C159.552 159.104 159.56 159.151 159.569 159.199C159.551 159.187 159.533 159.175 159.515 159.162C159.46 159.126 159.405 159.09 159.348 159.057C159.28 159.017 159.218 158.984 159.16 158.955C159.121 158.935 159.086 158.919 159.053 158.904C159.004 158.881 158.961 158.864 158.925 158.85C159.079 158.711 159.225 158.564 159.364 158.41C159.41 158.358 159.455 158.306 159.5 158.252C159.498 158.309 159.496 158.372 159.496 158.442C159.496 158.511 159.499 158.587 159.504 158.667H159.503ZM159.692 167.115C156.262 166.822 153.565 164.004 153.426 160.556H154.994C157.171 160.556 159.146 161.844 160.026 163.836C159.742 164.545 159.598 165.291 159.598 166.056C159.598 166.41 159.629 166.765 159.692 167.115V167.115ZM160.314 167.054C160.303 167.054 160.291 167.054 160.279 167.054C160.268 167.054 160.257 167.054 160.246 167.054C160.185 166.726 160.154 166.391 160.154 166.056C160.154 165.659 160.196 165.267 160.28 164.886C160.364 165.267 160.407 165.659 160.407 166.056C160.407 166.391 160.376 166.726 160.315 167.054H160.314ZM160.868 167.115C160.93 166.765 160.962 166.41 160.962 166.056C160.962 165.291 160.818 164.545 160.533 163.836C161.413 161.844 163.389 160.556 165.566 160.556H167.133C166.995 164.003 164.297 166.822 160.868 167.114V167.115Z" fill="#77C2C3"/>
<path d="M176.842 160.717H173.926C173.802 160.717 173.698 160.675 173.614 160.592C173.53 160.508 173.488 160.404 173.488 160.28C173.488 160.156 173.53 160.052 173.614 159.968C173.698 159.884 173.802 159.842 173.926 159.842H176.842V156.926C176.842 156.802 176.884 156.698 176.968 156.614C177.052 156.53 177.156 156.488 177.28 156.488C177.404 156.488 177.508 156.53 177.592 156.614C177.676 156.698 177.717 156.802 177.717 156.926V159.842H180.634C180.758 159.842 180.862 159.884 180.946 159.968C181.03 160.052 181.072 160.156 181.072 160.28C181.072 160.404 181.03 160.508 180.946 160.592C180.862 160.676 180.758 160.717 180.634 160.717H177.717V163.634C177.717 163.758 177.675 163.862 177.592 163.946C177.508 164.03 177.404 164.072 177.28 164.072C177.156 164.072 177.052 164.03 176.968 163.946C176.884 163.862 176.842 163.758 176.842 163.634V160.717Z" fill="white"/>
<defs>
<filter id="filter0_d_4571_12309" x="-0.000210762" y="-0.000699043" width="351.96" height="351.96" filterUnits="userSpaceOnUse" color-interpolation-filters="sRGB">
<feFlood flood-opacity="0" result="BackgroundImageFix"/>
<feColorMatrix in="SourceAlpha" type="matrix" values="0 0 0 0 0 0 0 0 0 0 0 0 0 0 0 0 0 0 127 0" result="hardAlpha"/>
<feOffset dx="15.7" dy="15.7"/>
<feGaussianBlur stdDeviation="82.99"/>
<feColorMatrix type="matrix" values="0 0 0 0 0 0 0 0 0 0 0 0 0 0 0 0 0 0 0.13 0"/>
<feBlend mode="normal" in2="BackgroundImageFix" result="effect1_dropShadow_4571_12309"/>
<feBlend mode="normal" in="SourceGraphic" in2="effect1_dropShadow_4571_12309" result="shape"/>
</filter>
<linearGradient id="paint0_linear_4571_12309" x1="167.28" y1="150.279" x2="167.28" y2="170.279" gradientUnits="userSpaceOnUse">
<stop stop-color="white"/>
<stop offset="1" stop-opacity="0.25"/>
</linearGradient>
</defs>
</svg>
