<svg width="440" height="360" viewBox="0 0 440 360" fill="none" xmlns="http://www.w3.org/2000/svg">
<g opacity="0.2" clip-path="url(#clip0_4484_8136)">
<mask id="mask0_4484_8136" style="mask-type:luminance" maskUnits="userSpaceOnUse" x="0" y="0" width="440" height="360">
<path d="M440 0H0V360H440V0Z" fill="white"/>
</mask>
<g mask="url(#mask0_4484_8136)">
<mask id="mask1_4484_8136" style="mask-type:luminance" maskUnits="userSpaceOnUse" x="-379" y="-63" width="1198" height="486">
<path d="M818.168 -62.1992H-378.155V422.201H818.168V-62.1992Z" fill="white"/>
</mask>
<g mask="url(#mask1_4484_8136)">
<path d="M23.6993 129.501C42.326 129.501 59.2293 138.511 66.7704 152.461C64.3382 157.421 63.1037 162.651 63.1037 168.001C63.1037 170.341 63.3482 172.681 63.8371 174.991H68.946C68.8482 174.991 68.7504 174.991 68.6526 174.991C68.1271 172.691 67.8582 170.341 67.8582 168.001C67.8582 165.221 68.2249 162.481 68.946 159.811C69.6671 162.481 70.0337 165.221 70.0337 168.001C70.0337 170.341 69.7649 172.691 69.2393 174.991C69.1415 174.991 69.0437 174.991 68.946 174.991H74.0549C74.5315 172.681 74.7882 170.341 74.7882 168.001C74.7882 162.651 73.5537 157.421 71.1215 152.461C78.6504 138.511 95.5537 129.501 114.193 129.501H127.6V125.611H114.193C95.566 125.611 78.6626 116.601 71.1215 102.651C73.5537 97.6911 74.7882 92.4611 74.7882 87.1111C74.7882 84.7711 74.5437 82.4311 74.0549 80.1211H68.946C69.0437 80.1211 69.1415 80.1211 69.2271 80.1211C69.7526 82.4211 70.0215 84.7711 70.0215 87.1111C70.0215 89.8911 69.6549 92.6311 68.9337 95.3011C68.2126 92.6311 67.846 89.8911 67.846 87.1111C67.846 84.7711 68.1149 82.4211 68.6404 80.1211C68.7382 80.1211 68.836 80.1211 68.9337 80.1211H63.8249C63.3482 82.4311 63.0915 84.7711 63.0915 87.1111C63.0915 92.4611 64.326 97.6911 66.7582 102.651C59.2293 116.601 42.326 125.611 23.6871 125.611H10.2793V129.501H23.6871H23.6993ZM62.6393 136.101C62.5171 136.751 62.4315 137.371 62.3582 137.971C62.3215 138.271 62.2971 138.561 62.2849 138.841C62.2482 139.401 62.2237 139.931 62.2237 140.421C62.2237 140.911 62.2237 141.351 62.2482 141.751C61.8693 141.381 61.4782 141.011 61.0871 140.651C59.9015 139.571 58.6549 138.541 57.3349 137.571C57.6404 137.471 58.0071 137.351 58.4226 137.191C58.7037 137.091 59.0093 136.971 59.3393 136.831C59.8282 136.631 60.366 136.391 60.9526 136.111C61.4415 135.881 61.9182 135.631 62.3826 135.371C62.5415 135.281 62.7004 135.201 62.8471 135.111C62.7737 135.441 62.7004 135.771 62.6393 136.101ZM72.4171 142.911C71.146 144.321 69.9849 145.801 68.9337 147.331C67.8949 145.811 66.7215 144.331 65.4504 142.911C65.2915 141.761 64.986 138.561 65.976 134.851C67.0149 134.141 68.0049 133.361 68.9337 132.531C69.8626 133.361 70.8404 134.141 71.8915 134.851C72.8815 138.561 72.576 141.771 72.4171 142.911ZM68.9337 126.261L69.8993 127.531L68.9337 128.721L67.9682 127.531L68.9337 126.261ZM67.1982 126.281C66.7337 125.571 66.306 124.841 65.9393 124.101C65.8171 123.851 65.6949 123.601 65.5849 123.351C66.4893 123.991 67.3082 124.661 68.0415 125.351C67.7482 125.661 67.4671 125.971 67.2104 126.281H67.1982ZM69.826 125.351C70.5593 124.661 71.3782 123.991 72.2826 123.351C72.1726 123.601 72.0504 123.851 71.9282 124.101C71.5493 124.851 71.1337 125.571 70.6693 126.281C70.4126 125.971 70.1315 125.661 69.8382 125.351H69.826ZM76.7804 140.641C76.3893 141.001 75.9982 141.371 75.6193 141.741C75.6437 141.341 75.656 140.901 75.6437 140.411C75.6437 139.921 75.6193 139.391 75.5826 138.831C75.5582 138.551 75.5337 138.261 75.5093 137.961C75.4482 137.361 75.3504 136.741 75.2282 136.091C75.1671 135.771 75.0937 135.441 75.0204 135.101C75.1793 135.191 75.326 135.271 75.4848 135.361C75.9493 135.621 76.426 135.871 76.9149 136.101C77.4893 136.381 78.0393 136.611 78.5282 136.821C78.8582 136.951 79.1637 137.071 79.4449 137.181C79.8726 137.341 80.2393 137.461 80.5326 137.561C79.2249 138.531 77.966 139.561 76.7804 140.641ZM75.2771 115.161V113.041C75.7293 113.491 76.1815 113.931 76.6582 114.361C77.1226 114.791 77.6115 115.221 78.1004 115.631C79.0782 116.461 80.1049 117.251 81.1682 118.011C80.2271 118.271 79.3226 118.551 78.4671 118.851C77.8926 119.051 77.3426 119.261 76.8049 119.481C76.0104 119.811 75.2526 120.161 74.5315 120.531C75.0082 118.781 75.2771 116.981 75.2771 115.151V115.161ZM75.3748 123.101C77.3426 122.011 79.6037 121.111 82.1337 120.421C87.0837 123.601 92.6937 126.021 98.6704 127.561C92.3271 129.191 86.3871 131.821 81.2171 135.301C80.5204 135.061 79.5182 134.681 78.3326 134.121C77.5871 133.761 76.8415 133.361 76.096 132.911L73.2849 127.541L75.3748 123.101ZM69.5326 129.551C69.8993 129.141 70.2415 128.721 70.5837 128.301C71.0726 128.991 71.4882 129.681 71.8549 130.381C72.2215 131.071 72.5393 131.771 72.8082 132.461C71.6104 131.571 70.5226 130.601 69.5449 129.561L69.5326 129.551ZM65.4137 112.261C66.6971 110.831 67.8826 109.341 68.9337 107.801C69.9849 109.341 71.1704 110.831 72.4537 112.261V115.161C72.4537 116.961 72.1849 118.771 71.6349 120.531C70.6815 121.131 69.7771 121.771 68.9215 122.471C68.0782 121.771 67.1615 121.121 66.2082 120.531C65.6704 118.771 65.3893 116.961 65.3893 115.161V112.261H65.4137ZM66.0126 130.371C66.3793 129.681 66.8071 128.981 67.2837 128.291C67.6137 128.721 67.9682 129.131 68.3349 129.541C67.3449 130.581 66.2571 131.551 65.0715 132.441C65.3404 131.751 65.646 131.061 66.0249 130.361L66.0126 130.371ZM59.7793 115.631C60.2682 115.211 60.7571 114.791 61.2215 114.361C61.686 113.931 62.1504 113.491 62.6026 113.041V115.161C62.6026 116.991 62.8715 118.791 63.3482 120.541C62.6393 120.171 61.8815 119.821 61.0749 119.491C60.5371 119.271 59.9871 119.061 59.4126 118.861C58.5571 118.561 57.6526 118.281 56.7115 118.021C57.7749 117.261 58.7893 116.471 59.7793 115.641V115.631ZM55.7337 120.421C58.2637 121.111 60.5371 122.011 62.4926 123.101L64.5826 127.541L61.7715 132.911C61.026 133.361 60.2804 133.761 59.5349 134.121C58.3615 134.681 57.3593 135.061 56.6504 135.301C51.4804 131.811 45.5404 129.191 39.1971 127.561C45.1615 126.021 50.7837 123.601 55.7337 120.421Z" fill="#4B3425"/>
<path d="M-20.4226 19.3899C-20.4226 34.6299 -31.4348 48.4599 -48.4848 54.6299C-54.547 52.6399 -60.9393 51.6299 -67.4781 51.6299C-70.3381 51.6299 -73.1982 51.8299 -76.0215 52.2299V56.4099C-76.0215 56.3299 -76.0215 56.2499 -76.0215 56.1699C-73.2104 55.7399 -70.3381 55.5199 -67.4781 55.5199C-64.0804 55.5199 -60.7315 55.8199 -57.4682 56.4099C-60.7315 56.9999 -64.0804 57.2999 -67.4781 57.2999C-70.3381 57.2999 -73.2104 57.0799 -76.0215 56.6499C-76.0215 56.5699 -76.0215 56.4899 -76.0215 56.4099V60.5899C-73.1982 60.9799 -70.3381 61.1899 -67.4781 61.1899C-60.9393 61.1899 -54.547 60.1799 -48.4848 58.1899C-31.4348 64.3499 -20.4226 78.1799 -20.4226 93.4299V104.4H-15.6682V93.4299C-15.6682 78.1899 -4.65592 64.3599 12.3941 58.1899C18.4563 60.1799 24.8485 61.1899 31.3874 61.1899C34.2474 61.1899 37.1074 60.9899 39.9307 60.5899V56.4099C39.9307 56.4899 39.9307 56.5699 39.9307 56.6399C37.1196 57.0699 34.2474 57.2899 31.3874 57.2899C27.9896 57.2899 24.6407 56.9899 21.3774 56.3999C24.6407 55.8099 27.9896 55.5099 31.3874 55.5099C34.2474 55.5099 37.1196 55.7299 39.9307 56.1599C39.9307 56.2399 39.9307 56.3199 39.9307 56.3999V52.2199C37.1074 51.8299 34.2474 51.6199 31.3874 51.6199C24.8485 51.6199 18.4563 52.6299 12.3941 54.6199C-4.6437 48.4599 -15.6682 34.6299 -15.6682 19.3899V8.41992H-20.4226V19.3899ZM-28.477 51.2499C-29.2715 51.1499 -30.0293 51.0799 -30.7626 51.0199C-31.1293 50.9899 -31.4837 50.9699 -31.8259 50.9599C-32.5104 50.9299 -33.1581 50.9099 -33.757 50.9099C-34.3559 50.9099 -34.8937 50.9099 -35.3826 50.9299C-34.9304 50.6199 -34.4782 50.2999 -34.0382 49.9799C-32.7182 49.0099 -31.4593 47.9899 -30.2737 46.9099C-30.1515 47.1599 -30.0048 47.4599 -29.8093 47.7999C-29.687 48.0299 -29.5404 48.2799 -29.3693 48.5499C-29.1248 48.9499 -28.8315 49.3899 -28.4893 49.8699C-28.2082 50.2699 -27.9026 50.6599 -27.5848 51.0399C-27.4748 51.1699 -27.377 51.2999 -27.267 51.4199C-27.6704 51.3599 -28.0737 51.2999 -28.477 51.2499ZM-36.8004 59.2499C-38.5237 58.2099 -40.3326 57.2599 -42.2026 56.3999C-40.3448 55.5499 -38.5359 54.5899 -36.8004 53.5499C-35.3948 53.4199 -31.4837 53.1699 -26.9493 53.9799C-26.0815 54.8299 -25.1282 55.6399 -24.1137 56.3999C-25.1282 57.1599 -26.0815 57.9599 -26.9493 58.8199C-31.4837 59.6299 -35.407 59.3799 -36.8004 59.2499ZM-16.4626 56.3999L-18.0148 57.1899L-19.4693 56.3999L-18.0148 55.6099L-16.4626 56.3999ZM-16.4748 54.9799C-15.607 54.5999 -14.7148 54.2499 -13.8104 53.9499C-13.5048 53.8499 -13.1993 53.7499 -12.8937 53.6599C-13.6759 54.3999 -14.4948 55.0699 -15.3382 55.6699C-15.717 55.4299 -16.0959 55.1999 -16.4748 54.9899V54.9799ZM-15.3382 57.1299C-14.4948 57.7299 -13.6759 58.3999 -12.8937 59.1399C-13.1993 59.0499 -13.5048 58.9499 -13.8104 58.8499C-14.727 58.5399 -15.607 58.1999 -16.4748 57.8199C-16.0959 57.6099 -15.717 57.3799 -15.3382 57.1399V57.1299ZM-34.0259 62.8199C-34.4659 62.4999 -34.9181 62.1799 -35.3704 61.8699C-34.8815 61.8899 -34.3437 61.8999 -33.7448 61.8899C-33.1459 61.8899 -32.4982 61.8699 -31.8137 61.8399C-31.4715 61.8199 -31.117 61.7999 -30.7504 61.7799C-30.017 61.7299 -29.2593 61.6499 -28.4648 61.5499C-28.0737 61.4999 -27.6704 61.4399 -27.2548 61.3799C-27.3648 61.5099 -27.4626 61.6299 -27.5726 61.7599C-27.8904 62.1399 -28.1959 62.5299 -28.477 62.9299C-28.8193 63.3999 -29.1004 63.8499 -29.357 64.2499C-29.5159 64.5199 -29.6626 64.7699 -29.797 64.9999C-29.9926 65.3499 -30.1393 65.6499 -30.2615 65.8899C-31.447 64.8199 -32.7059 63.7899 -34.0259 62.8199ZM-2.88371 61.5899H-0.280373C-0.830376 61.9599 -1.36815 62.3299 -1.89371 62.7199C-2.41926 63.0999 -2.94482 63.4999 -3.44593 63.8999C-4.46037 64.6999 -5.42593 65.5399 -6.35482 66.4099C-6.6726 65.6399 -7.01482 64.8999 -7.38148 64.1999C-7.62593 63.7299 -7.8826 63.2799 -8.15149 62.8399C-8.55482 62.1899 -8.9826 61.5699 -9.43482 60.9799C-7.29593 61.3699 -5.09593 61.5899 -2.85926 61.5899H-2.88371ZM-12.5882 61.6699C-11.2559 63.2799 -10.1559 65.1299 -9.31259 67.1999C-13.1993 71.2499 -16.157 75.8399 -18.0393 80.7299C-20.0315 75.5399 -23.2459 70.6799 -27.4993 66.4499C-27.2059 65.8799 -26.7415 65.0599 -26.057 64.0899C-25.617 63.4799 -25.1282 62.8699 -24.5782 62.2599L-18.0148 59.9599L-12.5882 61.6699ZM-20.4715 56.8899C-19.9704 57.1899 -19.457 57.4699 -18.9437 57.7499C-19.787 58.1499 -20.6304 58.4899 -21.4859 58.7899C-22.3293 59.0899 -23.1848 59.3499 -24.0281 59.5699C-22.9404 58.5899 -21.7548 57.6999 -20.4837 56.8999L-20.4715 56.8899ZM0.660736 53.5199C2.40852 54.5699 4.22962 55.5399 6.11185 56.3999C4.22962 57.2599 2.40852 58.2299 0.660736 59.2799H-2.88371C-5.08371 59.2799 -7.29593 59.0599 -9.44704 58.6099C-10.1804 57.8299 -10.9626 57.0899 -11.8182 56.3899C-10.9626 55.6999 -10.1682 54.9499 -9.44704 54.1699C-7.29593 53.7299 -5.08371 53.4999 -2.88371 53.4999H0.660736V53.5199ZM-21.4737 54.0099C-20.6304 54.3099 -19.7748 54.6599 -18.9315 55.0499C-19.457 55.3199 -19.9582 55.6099 -20.4593 55.9099C-21.7304 55.0999 -22.9159 54.2099 -24.0037 53.2399C-23.1604 53.4599 -22.317 53.7099 -21.4615 54.0199L-21.4737 54.0099ZM-3.45815 48.9099C-2.94482 49.3099 -2.43149 49.7099 -1.90593 50.0899C-1.38037 50.4699 -0.842598 50.8499 -0.292595 51.2199H-2.88371C-5.12038 51.2199 -7.32037 51.4399 -9.45927 51.8299C-9.00704 51.2499 -8.57926 50.6299 -8.17593 49.9699C-7.90704 49.5299 -7.65038 49.0799 -7.40593 48.6099C-7.03926 47.9099 -6.69704 47.1699 -6.37926 46.3999C-5.45037 47.2699 -4.48482 48.0999 -3.47038 48.9099H-3.45815ZM-9.31259 45.5999C-10.1559 47.6699 -11.2559 49.5299 -12.5882 51.1299L-18.0148 52.8399L-24.5782 50.5399C-25.1282 49.9299 -25.617 49.3199 -26.057 48.7099C-26.7415 47.7499 -27.2059 46.9299 -27.4993 46.3499C-23.2337 42.1199 -20.0315 37.2599 -18.0393 32.0699C-16.157 36.9499 -13.1993 41.5499 -9.31259 45.5999Z" fill="#4B3425"/>
<path d="M114.169 -16.7092C95.542 -16.7092 78.6387 -25.7192 71.0976 -39.6692C73.5298 -44.6292 74.7642 -49.8592 74.7642 -55.2092C74.7642 -57.5492 74.5198 -59.8892 74.0309 -62.1992H68.922C69.0198 -62.1992 69.1176 -62.1992 69.2154 -62.1992C69.7409 -59.8992 70.0098 -57.5492 70.0098 -55.2092C70.0098 -52.4292 69.6431 -49.6892 68.922 -47.0192C68.2009 -49.6892 67.8342 -52.4292 67.8342 -55.2092C67.8342 -57.5492 68.1031 -59.8992 68.6287 -62.1992C68.7265 -62.1992 68.8242 -62.1992 68.922 -62.1992H63.8131C63.3365 -59.8892 63.0798 -57.5492 63.0798 -55.2092C63.0798 -49.8592 64.3142 -44.6292 66.7465 -39.6692C59.2176 -25.7192 42.3142 -16.7092 23.6754 -16.7092H10.2676V-12.8192H23.6754C42.302 -12.8192 59.2054 -3.80922 66.7465 10.1408C64.3142 15.1008 63.0798 20.3308 63.0798 25.6808C63.0798 28.0208 63.3242 30.3608 63.8131 32.6708H68.922C68.8242 32.6708 68.7265 32.6708 68.6409 32.6708C68.1154 30.3708 67.8465 28.0208 67.8465 25.6808C67.8465 22.9008 68.2131 20.1608 68.9342 17.4908C69.6554 20.1608 70.022 22.9008 70.022 25.6808C70.022 28.0208 69.7531 30.3708 69.2276 32.6708C69.1298 32.6708 69.032 32.6708 68.9342 32.6708H74.0431C74.5198 30.3608 74.7765 28.0208 74.7765 25.6808C74.7765 20.3308 73.542 15.1008 71.1098 10.1408C78.6387 -3.80922 95.542 -12.8192 114.181 -12.8192H127.589V-16.7092H114.181H114.169ZM75.2287 -23.2992C75.3509 -23.9492 75.4365 -24.5692 75.5098 -25.1692C75.5465 -25.4692 75.5709 -25.7592 75.5831 -26.0392C75.6198 -26.5992 75.6442 -27.1292 75.6442 -27.6192C75.6442 -28.1092 75.6442 -28.5492 75.6198 -28.9492C75.9987 -28.5792 76.3898 -28.2092 76.7809 -27.8492C77.9665 -26.7692 79.2131 -25.7392 80.5331 -24.7692C80.2276 -24.6692 79.8609 -24.5492 79.4454 -24.3892C79.1642 -24.2892 78.8587 -24.1692 78.5287 -24.0292C78.0398 -23.8292 77.502 -23.5892 76.9154 -23.3092C76.4265 -23.0792 75.9498 -22.8292 75.4854 -22.5692C75.3265 -22.4792 75.1676 -22.3992 75.0209 -22.3092C75.0942 -22.6392 75.1676 -22.9692 75.2287 -23.2992ZM65.4509 -30.1092C66.722 -31.5192 67.8831 -32.9992 68.9342 -34.5292C69.9731 -33.0092 71.1465 -31.5292 72.4176 -30.1092C72.5765 -28.9592 72.882 -25.7592 71.892 -22.0492C70.8531 -21.3392 69.8631 -20.5592 68.9342 -19.7292C68.0054 -20.5592 67.0276 -21.3392 65.9765 -22.0492C64.9865 -25.7592 65.292 -28.9692 65.4509 -30.1092ZM68.9342 -13.4692L67.9687 -14.7392L68.9342 -15.9292L69.8998 -14.7392L68.9342 -13.4692ZM70.6576 -13.4792C71.122 -12.7692 71.5498 -12.0392 71.9165 -11.2992C72.0387 -11.0492 72.1609 -10.7992 72.2709 -10.5492C71.3665 -11.1892 70.5476 -11.8592 69.8142 -12.5492C70.1076 -12.8592 70.3887 -13.1692 70.6454 -13.4792H70.6576ZM68.042 -12.5492C67.3087 -11.8592 66.4898 -11.1892 65.5854 -10.5492C65.6954 -10.7992 65.8176 -11.0492 65.9398 -11.2992C66.3187 -12.0492 66.7342 -12.7692 67.1987 -13.4792C67.4554 -13.1692 67.7365 -12.8592 68.0298 -12.5492H68.042ZM61.0876 -27.8392C61.4787 -28.1992 61.8698 -28.5692 62.2487 -28.9392C62.2242 -28.5392 62.212 -28.0992 62.2242 -27.6092C62.2242 -27.1192 62.2487 -26.5892 62.2854 -26.0292C62.3098 -25.7492 62.3342 -25.4592 62.3587 -25.1592C62.4198 -24.5592 62.5176 -23.9392 62.6398 -23.2892C62.7009 -22.9692 62.7742 -22.6392 62.8476 -22.2992C62.6887 -22.3892 62.542 -22.4692 62.3831 -22.5592C61.9187 -22.8192 61.442 -23.0692 60.9531 -23.2992C60.3787 -23.5792 59.8287 -23.8092 59.3398 -24.0192C59.0098 -24.1492 58.7042 -24.2692 58.4231 -24.3792C57.9954 -24.5392 57.6287 -24.6592 57.3354 -24.7592C58.6431 -25.7292 59.902 -26.7592 61.0876 -27.8392ZM62.5909 -2.35922V-0.23922C62.1387 -0.68922 61.6865 -1.12922 61.2098 -1.55922C60.7454 -1.98922 60.2565 -2.41922 59.7676 -2.82922C58.7898 -3.65922 57.7631 -4.44922 56.6998 -5.20922C57.6409 -5.46922 58.5454 -5.74922 59.4009 -6.04922C59.9754 -6.24922 60.5254 -6.45922 61.0631 -6.67922C61.8576 -7.00922 62.6154 -7.35922 63.3365 -7.72922C62.8598 -5.97922 62.5909 -4.17922 62.5909 -2.34922V-2.35922ZM62.4931 -10.2992C60.5254 -9.20922 58.2642 -8.30922 55.7342 -7.61922C50.7842 -10.7992 45.1742 -13.2192 39.1976 -14.7592C45.5409 -16.3892 51.4809 -19.0192 56.6509 -22.4992C57.3476 -22.2592 58.3498 -21.8792 59.5354 -21.3192C60.2809 -20.9592 61.0265 -20.5592 61.772 -20.1092L64.5831 -14.7392L62.4931 -10.2992ZM68.3354 -16.7492C67.9687 -16.3392 67.6265 -15.9192 67.2842 -15.4992C66.7954 -16.1892 66.3798 -16.8792 66.0131 -17.5792C65.6465 -18.2692 65.3287 -18.9692 65.0598 -19.6592C66.2576 -18.7692 67.3454 -17.7992 68.3231 -16.7592L68.3354 -16.7492ZM72.4542 0.540783C71.1709 1.97078 69.9854 3.46078 68.9342 5.00078C67.8831 3.46078 66.6976 1.97078 65.4142 0.540783V-2.35922C65.4142 -4.15922 65.6831 -5.96922 66.2331 -7.72922C67.1865 -8.32922 68.0909 -8.96922 68.9465 -9.66922C69.7898 -8.96922 70.7065 -8.31922 71.6598 -7.72922C72.1976 -5.96922 72.4787 -4.15922 72.4787 -2.35922V0.540783H72.4542ZM71.8554 -17.5692C71.4887 -16.8792 71.0609 -16.1792 70.5842 -15.4892C70.2542 -15.9192 69.8998 -16.3292 69.5331 -16.7392C70.5231 -17.7792 71.6109 -18.7492 72.7965 -19.6392C72.5276 -18.9492 72.222 -18.2592 71.8431 -17.5592L71.8554 -17.5692ZM78.0887 -2.82922C77.5998 -2.40922 77.1109 -1.98922 76.6465 -1.55922C76.182 -1.12922 75.7176 -0.68922 75.2654 -0.23922V-2.35922C75.2654 -4.18922 74.9965 -5.98922 74.5198 -7.73922C75.2287 -7.36922 75.9865 -7.01922 76.7931 -6.68922C77.3309 -6.46922 77.8809 -6.25922 78.4554 -6.05922C79.3109 -5.75922 80.2154 -5.47922 81.1565 -5.21922C80.0931 -4.45922 79.0787 -3.66922 78.0887 -2.83922V-2.82922ZM82.1342 -7.61922C79.6042 -8.30922 77.3309 -9.20922 75.3754 -10.2992L73.2854 -14.7392L76.0965 -20.1092C76.842 -20.5592 77.5876 -20.9592 78.3331 -21.3192C79.5065 -21.8792 80.5087 -22.2592 81.2176 -22.4992C86.3876 -19.0092 92.3276 -16.3892 98.6709 -14.7592C92.7065 -13.2192 87.0842 -10.7992 82.1342 -7.61922Z" fill="#4B3425"/>
<path d="M158.291 93.4104C158.291 78.1704 169.303 64.3404 186.353 58.1704C192.415 60.1604 198.807 61.1704 205.346 61.1704C208.206 61.1704 211.066 60.9704 213.89 60.5704V56.3904C213.89 56.4704 213.89 56.5504 213.89 56.6304C211.079 57.0604 208.206 57.2804 205.346 57.2804C201.949 57.2804 198.6 56.9804 195.336 56.3904C198.6 55.8004 201.949 55.5004 205.346 55.5004C208.206 55.5004 211.079 55.7204 213.89 56.1504C213.89 56.2304 213.89 56.3104 213.89 56.3904V52.2104C211.066 51.8204 208.206 51.6104 205.346 51.6104C198.807 51.6104 192.415 52.6204 186.353 54.6104C169.303 48.4504 158.291 34.6204 158.291 19.3704V8.40039H153.536V19.3704C153.536 34.6104 142.524 48.4404 125.474 54.6104C119.412 52.6204 113.02 51.6104 106.481 51.6104C103.621 51.6104 100.761 51.8104 97.9375 52.2104V56.3904C97.9375 56.3104 97.9375 56.2304 97.9375 56.1604C100.749 55.7304 103.621 55.5104 106.481 55.5104C109.879 55.5104 113.227 55.8104 116.491 56.4004C113.227 56.9904 109.879 57.2904 106.481 57.2904C103.621 57.2904 100.749 57.0704 97.9375 56.6404C97.9375 56.5604 97.9375 56.4804 97.9375 56.4004V60.5804C100.761 60.9704 103.621 61.1804 106.481 61.1804C113.02 61.1804 119.412 60.1704 125.474 58.1804C142.524 64.3404 153.536 78.1704 153.536 93.4204V104.39H158.291V93.4204V93.4104ZM166.345 61.5504C167.14 61.6504 167.898 61.7204 168.631 61.7804C168.998 61.8104 169.352 61.8304 169.694 61.8404C170.379 61.8704 171.026 61.8904 171.625 61.8904C172.224 61.8904 172.762 61.8904 173.251 61.8704C172.799 62.1804 172.346 62.5004 171.906 62.8204C170.586 63.7904 169.328 64.8104 168.142 65.8904C168.02 65.6404 167.873 65.3404 167.678 65.0004C167.555 64.7704 167.409 64.5204 167.238 64.2504C166.993 63.8504 166.7 63.4104 166.358 62.9304C166.076 62.5304 165.771 62.1404 165.453 61.7604C165.343 61.6304 165.245 61.5004 165.135 61.3804C165.539 61.4404 165.942 61.5004 166.345 61.5504ZM174.669 53.5504C176.392 54.5904 178.201 55.5404 180.071 56.4004C178.213 57.2504 176.404 58.2104 174.669 59.2504C173.263 59.3804 169.352 59.6304 164.818 58.8204C163.95 57.9704 162.996 57.1604 161.982 56.4004C162.996 55.6404 163.95 54.8404 164.818 53.9804C169.352 53.1704 173.275 53.4204 174.669 53.5504ZM154.331 56.4004L155.883 55.6104L157.337 56.4004L155.883 57.1904L154.331 56.4004ZM154.343 57.8104C153.475 58.1904 152.583 58.5404 151.679 58.8404C151.373 58.9404 151.068 59.0404 150.762 59.1304C151.544 58.3904 152.363 57.7204 153.206 57.1204C153.585 57.3604 153.964 57.5904 154.343 57.8004V57.8104ZM153.206 55.6704C152.363 55.0704 151.544 54.4004 150.762 53.6604C151.068 53.7504 151.373 53.8504 151.679 53.9504C152.595 54.2604 153.475 54.6004 154.343 54.9804C153.964 55.1904 153.585 55.4204 153.206 55.6604V55.6704ZM171.894 49.9804C172.334 50.3004 172.786 50.6204 173.239 50.9304C172.75 50.9104 172.212 50.9004 171.613 50.9104C171.014 50.9104 170.366 50.9304 169.682 50.9604C169.34 50.9804 168.985 51.0004 168.619 51.0204C167.885 51.0704 167.127 51.1504 166.333 51.2504C165.942 51.3004 165.539 51.3604 165.123 51.4204C165.233 51.2904 165.331 51.1704 165.441 51.0404C165.759 50.6604 166.064 50.2704 166.345 49.8704C166.688 49.4004 166.969 48.9504 167.225 48.5504C167.384 48.2804 167.531 48.0304 167.665 47.8004C167.861 47.4504 168.007 47.1504 168.13 46.9104C169.315 47.9804 170.574 49.0104 171.894 49.9804ZM140.752 51.2104H138.161C138.711 50.8404 139.249 50.4704 139.774 50.0804C140.3 49.7004 140.825 49.3004 141.326 48.9004C142.341 48.1004 143.306 47.2604 144.235 46.3904C144.553 47.1604 144.895 47.9004 145.262 48.6004C145.506 49.0704 145.763 49.5204 146.032 49.9604C146.435 50.6104 146.863 51.2304 147.315 51.8204C145.176 51.4304 142.976 51.2104 140.74 51.2104H140.752ZM150.456 51.1304C149.124 49.5204 148.024 47.6704 147.181 45.6004C151.068 41.5504 154.025 36.9604 155.908 32.0704C157.9 37.2604 161.114 42.1204 165.368 46.3504C165.074 46.9204 164.61 47.7404 163.925 48.7104C163.485 49.3204 162.996 49.9304 162.446 50.5404L155.883 52.8404L150.456 51.1304ZM158.34 55.9104C157.839 55.6104 157.325 55.3304 156.812 55.0504C157.655 54.6504 158.499 54.3104 159.354 54.0104C160.198 53.7104 161.053 53.4504 161.896 53.2304C160.809 54.2104 159.623 55.1004 158.352 55.9004L158.34 55.9104ZM137.208 59.2804C135.46 58.2304 133.639 57.2604 131.756 56.4004C133.639 55.5404 135.46 54.5704 137.208 53.5204H140.752C142.952 53.5204 145.164 53.7404 147.315 54.1904C148.049 54.9704 148.831 55.7104 149.686 56.4104C148.831 57.1004 148.036 57.8504 147.315 58.6304C145.164 59.0704 142.952 59.3004 140.752 59.3004H137.208V59.2804ZM159.342 58.7904C158.499 58.4904 157.643 58.1404 156.8 57.7504C157.325 57.4804 157.826 57.1904 158.327 56.8904C159.599 57.7004 160.784 58.5904 161.872 59.5604C161.029 59.3404 160.185 59.0904 159.33 58.7804L159.342 58.7904ZM141.326 63.8904C140.813 63.4904 140.3 63.0904 139.774 62.7104C139.249 62.3304 138.711 61.9504 138.161 61.5804H140.752C142.989 61.5804 145.189 61.3604 147.328 60.9704C146.875 61.5504 146.448 62.1704 146.044 62.8304C145.775 63.2704 145.519 63.7204 145.274 64.1904C144.908 64.8904 144.565 65.6304 144.247 66.4004C143.319 65.5304 142.353 64.7004 141.339 63.8904H141.326ZM147.181 67.2004C148.024 65.1304 149.124 63.2704 150.456 61.6704L155.883 59.9604L162.446 62.2604C162.996 62.8704 163.485 63.4804 163.925 64.0904C164.61 65.0504 165.074 65.8704 165.368 66.4504C161.102 70.6804 157.9 75.5404 155.908 80.7304C154.025 75.8504 151.068 71.2504 147.181 67.2004Z" fill="#4B3425"/>
<path d="M325.833 129.501C344.46 129.501 361.363 138.511 368.904 152.461C366.472 157.421 365.238 162.651 365.238 168.001C365.238 170.341 365.482 172.681 365.971 174.991H371.08C370.982 174.991 370.884 174.991 370.786 174.991C370.261 172.691 369.992 170.341 369.992 168.001C369.992 165.221 370.359 162.481 371.08 159.811C371.801 162.481 372.168 165.221 372.168 168.001C372.168 170.341 371.899 172.691 371.373 174.991C371.275 174.991 371.178 174.991 371.08 174.991H376.189C376.665 172.681 376.922 170.341 376.922 168.001C376.922 162.651 375.688 157.421 373.255 152.461C380.784 138.511 397.688 129.501 416.326 129.501H429.734V125.611H416.326C397.7 125.611 380.796 116.601 373.255 102.651C375.688 97.6911 376.922 92.4611 376.922 87.1111C376.922 84.7711 376.678 82.4311 376.189 80.1211H371.08C371.178 80.1211 371.275 80.1211 371.361 80.1211C371.886 82.4211 372.155 84.7711 372.155 87.1111C372.155 89.8911 371.789 92.6311 371.068 95.3011C370.346 92.6311 369.98 89.8911 369.98 87.1111C369.98 84.7711 370.249 82.4211 370.774 80.1211C370.872 80.1211 370.97 80.1211 371.068 80.1211H365.959C365.482 82.4311 365.225 84.7711 365.225 87.1111C365.225 92.4611 366.46 97.6911 368.892 102.651C361.363 116.601 344.46 125.611 325.821 125.611H312.413V129.501H325.821H325.833ZM364.773 136.101C364.651 136.751 364.565 137.371 364.492 137.971C364.455 138.271 364.431 138.561 364.419 138.841C364.382 139.401 364.358 139.931 364.358 140.421C364.358 140.911 364.358 141.351 364.382 141.751C364.003 141.381 363.612 141.011 363.221 140.651C362.035 139.571 360.789 138.541 359.469 137.571C359.774 137.471 360.141 137.351 360.556 137.191C360.838 137.091 361.143 136.971 361.473 136.831C361.962 136.631 362.5 136.391 363.086 136.111C363.575 135.881 364.052 135.631 364.516 135.371C364.675 135.281 364.834 135.201 364.981 135.111C364.908 135.441 364.834 135.771 364.773 136.101ZM374.551 142.911C373.28 144.321 372.119 145.801 371.068 147.331C370.029 145.811 368.855 144.331 367.584 142.911C367.425 141.761 367.12 138.561 368.11 134.851C369.149 134.141 370.139 133.361 371.068 132.531C371.996 133.361 372.974 134.141 374.025 134.851C375.015 138.561 374.71 141.771 374.551 142.911ZM371.068 126.261L372.033 127.531L371.068 128.721L370.102 127.531L371.068 126.261ZM369.344 126.281C368.88 125.571 368.452 124.841 368.085 124.101C367.963 123.851 367.841 123.601 367.731 123.351C368.635 123.991 369.454 124.661 370.188 125.351C369.894 125.661 369.613 125.971 369.356 126.281H369.344ZM371.96 125.351C372.693 124.661 373.512 123.991 374.416 123.351C374.306 123.601 374.184 123.851 374.062 124.101C373.683 124.851 373.268 125.571 372.803 126.281C372.546 125.971 372.265 125.661 371.972 125.351H371.96ZM378.914 140.641C378.523 141.001 378.132 141.371 377.753 141.741C377.778 141.341 377.79 140.901 377.778 140.411C377.778 139.921 377.753 139.391 377.716 138.831C377.692 138.551 377.668 138.261 377.643 137.961C377.582 137.361 377.484 136.741 377.362 136.091C377.301 135.771 377.228 135.441 377.154 135.101C377.313 135.191 377.46 135.271 377.619 135.361C378.083 135.621 378.56 135.871 379.049 136.101C379.623 136.381 380.173 136.611 380.662 136.821C380.992 136.951 381.298 137.071 381.579 137.181C382.006 137.341 382.373 137.461 382.666 137.561C381.359 138.531 380.1 139.561 378.914 140.641ZM377.411 115.161V113.041C377.863 113.491 378.315 113.931 378.792 114.361C379.256 114.791 379.745 115.221 380.234 115.631C381.212 116.461 382.239 117.251 383.302 118.011C382.361 118.271 381.456 118.551 380.601 118.851C380.026 119.051 379.476 119.261 378.939 119.481C378.144 119.811 377.386 120.161 376.665 120.531C377.142 118.781 377.411 116.981 377.411 115.151V115.161ZM377.509 123.101C379.476 122.011 381.738 121.111 384.268 120.421C389.218 123.601 394.828 126.021 400.804 127.561C394.461 129.191 388.521 131.821 383.351 135.301C382.654 135.061 381.652 134.681 380.466 134.121C379.721 133.761 378.975 133.361 378.23 132.911L375.419 127.541L377.509 123.101ZM371.666 129.551C372.033 129.141 372.375 128.721 372.718 128.301C373.206 128.991 373.622 129.681 373.989 130.381C374.355 131.071 374.673 131.771 374.942 132.461C373.744 131.571 372.656 130.601 371.679 129.561L371.666 129.551ZM367.548 112.261C368.831 110.831 370.016 109.341 371.068 107.801C372.119 109.341 373.304 110.831 374.588 112.261V115.161C374.588 116.961 374.319 118.771 373.769 120.531C372.815 121.131 371.911 121.771 371.055 122.471C370.212 121.771 369.295 121.121 368.342 120.531C367.804 118.771 367.523 116.961 367.523 115.161V112.261H367.548ZM368.146 130.371C368.513 129.681 368.941 128.981 369.418 128.291C369.748 128.721 370.102 129.131 370.469 129.541C369.479 130.581 368.391 131.551 367.205 132.441C367.474 131.751 367.78 131.061 368.159 130.361L368.146 130.371ZM361.913 115.631C362.402 115.211 362.891 114.791 363.355 114.361C363.82 113.931 364.284 113.491 364.736 113.041V115.161C364.736 116.991 365.005 118.791 365.482 120.541C364.773 120.171 364.015 119.821 363.209 119.491C362.671 119.271 362.121 119.061 361.546 118.861C360.691 118.561 359.786 118.281 358.845 118.021C359.909 117.261 360.923 116.471 361.913 115.641V115.631ZM357.868 120.421C360.398 121.111 362.671 122.011 364.626 123.101L366.716 127.541L363.905 132.911C363.16 133.361 362.414 133.761 361.669 134.121C360.495 134.681 359.493 135.061 358.784 135.301C353.614 131.811 347.674 129.191 341.331 127.561C347.295 126.021 352.918 123.601 357.868 120.421Z" fill="#4B3425"/>
<path d="M281.711 19.3902C281.711 34.6302 270.699 48.4602 253.649 54.6302C247.587 52.6402 241.195 51.6302 234.656 51.6302C231.796 51.6302 228.936 51.8302 226.112 52.2302V56.4102C226.112 56.3302 226.112 56.2502 226.112 56.1702C228.923 55.7402 231.796 55.5202 234.656 55.5202C238.053 55.5202 241.402 55.8202 244.666 56.4102C241.402 57.0002 238.053 57.3002 234.656 57.3002C231.796 57.3002 228.923 57.0802 226.112 56.6502C226.112 56.5702 226.112 56.4902 226.112 56.4102V60.5902C228.936 60.9802 231.796 61.1902 234.656 61.1902C241.195 61.1902 247.587 60.1802 253.649 58.1902C270.699 64.3502 281.711 78.1802 281.711 93.4302V104.4H286.466V93.4302C286.466 78.1902 297.478 64.3602 314.528 58.1902C320.59 60.1802 326.982 61.1902 333.521 61.1902C336.381 61.1902 339.241 60.9902 342.065 60.5902V56.4102C342.065 56.4902 342.065 56.5702 342.065 56.6402C339.253 57.0702 336.381 57.2902 333.521 57.2902C330.123 57.2902 326.775 56.9902 323.511 56.4002C326.775 55.8102 330.123 55.5102 333.521 55.5102C336.381 55.5102 339.253 55.7302 342.065 56.1602C342.065 56.2402 342.065 56.3202 342.065 56.4002V52.2202C339.241 51.8302 336.381 51.6202 333.521 51.6202C326.982 51.6202 320.59 52.6302 314.528 54.6202C297.478 48.4602 286.466 34.6302 286.466 19.3802V8.41016H281.711V19.3802V19.3902ZM273.657 51.2502C272.862 51.1502 272.105 51.0802 271.371 51.0202C271.005 50.9902 270.65 50.9702 270.308 50.9602C269.623 50.9302 268.976 50.9102 268.377 50.9102C267.778 50.9102 267.24 50.9102 266.751 50.9302C267.203 50.6202 267.656 50.3002 268.096 49.9802C269.416 49.0102 270.675 47.9902 271.86 46.9102C271.982 47.1602 272.129 47.4602 272.325 47.8002C272.447 48.0302 272.593 48.2802 272.765 48.5502C273.009 48.9502 273.302 49.3902 273.645 49.8702C273.926 50.2702 274.231 50.6602 274.549 51.0402C274.659 51.1702 274.757 51.3002 274.867 51.4202C274.463 51.3602 274.06 51.3002 273.657 51.2502ZM265.333 59.2502C263.61 58.2102 261.801 57.2602 259.931 56.4002C261.789 55.5502 263.598 54.5902 265.333 53.5502C266.739 53.4202 270.65 53.1702 275.185 53.9802C276.052 54.8302 277.006 55.6402 278.02 56.4002C277.006 57.1602 276.052 57.9602 275.185 58.8202C270.65 59.6302 266.727 59.3802 265.333 59.2502ZM285.671 56.4002L284.119 57.1902L282.665 56.4002L284.119 55.6102L285.671 56.4002ZM285.659 54.9802C286.527 54.6002 287.419 54.2502 288.323 53.9502C288.629 53.8502 288.935 53.7502 289.24 53.6602C288.458 54.4002 287.639 55.0702 286.796 55.6702C286.417 55.4302 286.038 55.2002 285.659 54.9902V54.9802ZM286.796 57.1302C287.639 57.7302 288.458 58.4002 289.24 59.1402C288.935 59.0502 288.629 58.9502 288.323 58.8502C287.407 58.5402 286.527 58.2002 285.659 57.8202C286.038 57.6102 286.417 57.3802 286.796 57.1402V57.1302ZM268.108 62.8202C267.668 62.5002 267.216 62.1802 266.763 61.8702C267.252 61.8902 267.79 61.9002 268.389 61.8902C268.988 61.8902 269.636 61.8702 270.32 61.8402C270.662 61.8202 271.017 61.8002 271.383 61.7802C272.117 61.7302 272.875 61.6502 273.669 61.5502C274.06 61.5002 274.463 61.4402 274.879 61.3802C274.769 61.5102 274.671 61.6302 274.561 61.7602C274.243 62.1402 273.938 62.5302 273.657 62.9302C273.315 63.4002 273.033 63.8502 272.777 64.2502C272.618 64.5202 272.471 64.7702 272.337 65.0002C272.141 65.3502 271.995 65.6502 271.872 65.8902C270.687 64.8202 269.428 63.7902 268.108 62.8202ZM299.25 61.5902H301.841C301.291 61.9602 300.753 62.3302 300.228 62.7202C299.702 63.1002 299.177 63.5002 298.676 63.9002C297.661 64.7002 296.696 65.5402 295.767 66.4102C295.449 65.6402 295.107 64.9002 294.74 64.2002C294.496 63.7302 294.239 63.2802 293.97 62.8402C293.567 62.1902 293.139 61.5702 292.687 60.9802C294.826 61.3702 297.026 61.5902 299.262 61.5902H299.25ZM289.546 61.6702C290.878 63.2802 291.978 65.1302 292.821 67.2002C288.935 71.2502 285.977 75.8402 284.095 80.7302C282.102 75.5402 278.888 70.6802 274.635 66.4502C274.928 65.8802 275.392 65.0602 276.077 64.0902C276.517 63.4802 277.006 62.8702 277.556 62.2602L284.119 59.9602L289.546 61.6702ZM281.662 56.8902C282.163 57.1902 282.677 57.4702 283.19 57.7502C282.347 58.1502 281.503 58.4902 280.648 58.7902C279.805 59.0902 278.949 59.3502 278.106 59.5702C279.193 58.5902 280.379 57.7002 281.65 56.9002L281.662 56.8902ZM302.795 53.5202C304.542 54.5702 306.363 55.5402 308.246 56.4002C306.363 57.2602 304.542 58.2302 302.795 59.2802H299.25C297.05 59.2802 294.838 59.0602 292.687 58.6102C291.953 57.8302 291.171 57.0902 290.316 56.3902C291.171 55.7002 291.966 54.9502 292.687 54.1702C294.838 53.7302 297.05 53.5002 299.25 53.5002H302.795V53.5202ZM280.66 54.0102C281.503 54.3102 282.359 54.6602 283.202 55.0502C282.677 55.3202 282.176 55.6102 281.675 55.9102C280.403 55.1002 279.218 54.2102 278.13 53.2402C278.973 53.4602 279.817 53.7102 280.672 54.0202L280.66 54.0102ZM298.676 48.9102C299.189 49.3102 299.702 49.7102 300.228 50.0902C300.753 50.4702 301.291 50.8502 301.841 51.2202H299.25C297.013 51.2202 294.813 51.4402 292.675 51.8302C293.127 51.2502 293.555 50.6302 293.958 49.9702C294.227 49.5302 294.483 49.0802 294.728 48.6102C295.095 47.9102 295.437 47.1702 295.755 46.4002C296.683 47.2702 297.649 48.1002 298.663 48.9102H298.676ZM292.821 45.6002C291.978 47.6702 290.878 49.5302 289.546 51.1302L284.119 52.8402L277.556 50.5402C277.006 49.9302 276.517 49.3202 276.077 48.7102C275.392 47.7502 274.928 46.9302 274.635 46.3502C278.9 42.1202 282.102 37.2602 284.095 32.0702C285.977 36.9502 288.935 41.5502 292.821 45.6002Z" fill="#4B3425"/>
<path d="M416.302 -16.7092C397.676 -16.7092 380.772 -25.7192 373.231 -39.6692C375.664 -44.6292 376.898 -49.8592 376.898 -55.2092C376.898 -57.5492 376.654 -59.8892 376.165 -62.1992H371.056C371.154 -62.1992 371.251 -62.1992 371.349 -62.1992C371.875 -59.8992 372.144 -57.5492 372.144 -55.2092C372.144 -52.4292 371.777 -49.6892 371.056 -47.0192C370.335 -49.6892 369.968 -52.4292 369.968 -55.2092C369.968 -57.5492 370.237 -59.8992 370.762 -62.1992C370.86 -62.1992 370.958 -62.1992 371.056 -62.1992H365.947C365.47 -59.8892 365.214 -57.5492 365.214 -55.2092C365.214 -49.8592 366.448 -44.6292 368.88 -39.6692C361.351 -25.7192 344.448 -16.7092 325.809 -16.7092H312.401V-12.8192H325.809C344.436 -12.8192 361.339 -3.80922 368.88 10.1408C366.448 15.1008 365.214 20.3308 365.214 25.6808C365.214 28.0208 365.458 30.3608 365.947 32.6708H371.056C370.958 32.6708 370.86 32.6708 370.775 32.6708C370.249 30.3708 369.98 28.0208 369.98 25.6808C369.98 22.9008 370.347 20.1608 371.068 17.4908C371.789 20.1608 372.156 22.9008 372.156 25.6808C372.156 28.0208 371.887 30.3708 371.361 32.6708C371.264 32.6708 371.166 32.6708 371.068 32.6708H376.177C376.654 30.3608 376.91 28.0208 376.91 25.6808C376.91 20.3308 375.676 15.1008 373.244 10.1408C380.772 -3.80922 397.676 -12.8192 416.315 -12.8192H429.722V-16.7092H416.315H416.302ZM377.362 -23.2992C377.485 -23.9492 377.57 -24.5692 377.644 -25.1692C377.68 -25.4692 377.705 -25.7592 377.717 -26.0392C377.754 -26.5992 377.778 -27.1292 377.778 -27.6192C377.778 -28.1092 377.778 -28.5492 377.754 -28.9492C378.132 -28.5792 378.524 -28.2092 378.915 -27.8492C380.1 -26.7692 381.347 -25.7392 382.667 -24.7692C382.361 -24.6692 381.995 -24.5492 381.579 -24.3892C381.298 -24.2892 380.992 -24.1692 380.662 -24.0292C380.174 -23.8292 379.636 -23.5892 379.049 -23.3092C378.56 -23.0792 378.084 -22.8292 377.619 -22.5692C377.46 -22.4792 377.301 -22.3992 377.155 -22.3092C377.228 -22.6392 377.301 -22.9692 377.362 -23.2992ZM367.585 -30.1092C368.856 -31.5192 370.017 -32.9992 371.068 -34.5292C372.107 -33.0092 373.28 -31.5292 374.551 -30.1092C374.71 -28.9592 375.016 -25.7592 374.026 -22.0492C372.987 -21.3392 371.997 -20.5592 371.068 -19.7292C370.139 -20.5592 369.161 -21.3392 368.11 -22.0492C367.12 -25.7592 367.426 -28.9692 367.585 -30.1092ZM371.068 -13.4692L370.102 -14.7392L371.068 -15.9292L372.034 -14.7392L371.068 -13.4692ZM372.804 -13.4792C373.268 -12.7692 373.696 -12.0392 374.062 -11.2992C374.185 -11.0492 374.307 -10.7992 374.417 -10.5492C373.512 -11.1892 372.694 -11.8592 371.96 -12.5492C372.254 -12.8592 372.535 -13.1692 372.791 -13.4792H372.804ZM370.176 -12.5492C369.442 -11.8592 368.624 -11.1892 367.719 -10.5492C367.829 -10.7992 367.951 -11.0492 368.074 -11.2992C368.452 -12.0492 368.868 -12.7692 369.332 -13.4792C369.589 -13.1692 369.87 -12.8592 370.164 -12.5492H370.176ZM363.221 -27.8392C363.612 -28.1992 364.004 -28.5692 364.382 -28.9392C364.358 -28.5392 364.346 -28.0992 364.358 -27.6092C364.358 -27.1192 364.382 -26.5892 364.419 -26.0292C364.444 -25.7492 364.468 -25.4592 364.492 -25.1592C364.554 -24.5592 364.651 -23.9392 364.774 -23.2892C364.835 -22.9692 364.908 -22.6392 364.981 -22.2992C364.822 -22.3892 364.676 -22.4692 364.517 -22.5592C364.052 -22.8192 363.576 -23.0692 363.087 -23.2992C362.512 -23.5792 361.962 -23.8092 361.474 -24.0192C361.144 -24.1492 360.838 -24.2692 360.557 -24.3792C360.129 -24.5392 359.762 -24.6592 359.469 -24.7592C360.777 -25.7292 362.036 -26.7592 363.221 -27.8392ZM364.737 -2.35922V-0.23922C364.285 -0.68922 363.832 -1.12922 363.356 -1.55922C362.891 -1.98922 362.402 -2.41922 361.914 -2.82922C360.936 -3.65922 359.909 -4.44922 358.846 -5.20922C359.787 -5.46922 360.691 -5.74922 361.547 -6.04922C362.121 -6.24922 362.671 -6.45922 363.209 -6.67922C364.004 -7.00922 364.761 -7.35922 365.482 -7.72922C365.006 -5.97922 364.737 -4.17922 364.737 -2.34922V-2.35922ZM364.627 -10.2992C362.659 -9.20922 360.398 -8.30922 357.868 -7.61922C352.918 -10.7992 347.308 -13.2192 341.331 -14.7592C347.675 -16.3892 353.615 -19.0192 358.785 -22.4992C359.481 -22.2592 360.484 -21.8792 361.669 -21.3192C362.415 -20.9592 363.16 -20.5592 363.906 -20.1092L366.717 -14.7392L364.627 -10.2992ZM370.469 -16.7492C370.102 -16.3392 369.76 -15.9192 369.418 -15.4992C368.929 -16.1892 368.514 -16.8792 368.147 -17.5792C367.78 -18.2692 367.462 -18.9692 367.194 -19.6592C368.391 -18.7692 369.479 -17.7992 370.457 -16.7592L370.469 -16.7492ZM374.588 0.540783C373.305 1.97078 372.119 3.46078 371.068 5.00078C370.017 3.46078 368.831 1.97078 367.548 0.540783V-2.35922C367.548 -4.15922 367.817 -5.96922 368.367 -7.72922C369.32 -8.32922 370.225 -8.96922 371.08 -9.66922C371.924 -8.96922 372.84 -8.31922 373.794 -7.72922C374.331 -5.96922 374.612 -4.15922 374.612 -2.35922V0.540783H374.588ZM373.989 -17.5692C373.622 -16.8792 373.195 -16.1792 372.718 -15.4892C372.388 -15.9192 372.034 -16.3292 371.667 -16.7392C372.657 -17.7792 373.745 -18.7492 374.93 -19.6392C374.661 -18.9492 374.356 -18.2592 373.977 -17.5592L373.989 -17.5692ZM380.222 -2.82922C379.734 -2.40922 379.245 -1.98922 378.78 -1.55922C378.316 -1.12922 377.851 -0.68922 377.399 -0.23922V-2.35922C377.399 -4.18922 377.13 -5.98922 376.654 -7.73922C377.362 -7.36922 378.12 -7.01922 378.927 -6.68922C379.465 -6.46922 380.015 -6.25922 380.589 -6.05922C381.445 -5.75922 382.349 -5.47922 383.29 -5.21922C382.227 -4.45922 381.212 -3.66922 380.222 -2.83922V-2.82922ZM384.268 -7.61922C381.738 -8.30922 379.465 -9.20922 377.509 -10.2992L375.419 -14.7392L378.23 -20.1092C378.976 -20.5592 379.721 -20.9592 380.467 -21.3192C381.64 -21.8792 382.642 -22.2592 383.351 -22.4992C388.521 -19.0092 394.461 -16.3892 400.805 -14.7592C394.84 -13.2192 389.218 -10.7992 384.268 -7.61922Z" fill="#4B3425"/>
<path d="M460.425 93.4104C460.425 78.1704 471.437 64.3404 488.487 58.1704C494.549 60.1604 500.941 61.1704 507.48 61.1704C510.34 61.1704 513.2 60.9704 516.024 60.5704V56.3904C516.024 56.4704 516.024 56.5504 516.024 56.6304C513.212 57.0604 510.34 57.2804 507.48 57.2804C504.082 57.2804 500.734 56.9804 497.47 56.3904C500.734 55.8004 504.082 55.5004 507.48 55.5004C510.34 55.5004 513.212 55.7204 516.024 56.1504C516.024 56.2304 516.024 56.3104 516.024 56.3904V52.2104C513.2 51.8204 510.34 51.6104 507.48 51.6104C500.941 51.6104 494.549 52.6204 488.487 54.6104C471.437 48.4504 460.425 34.6204 460.425 19.3704V8.40039H455.67V19.3704C455.67 34.6104 444.658 48.4404 427.608 54.6104C421.546 52.6204 415.154 51.6104 408.615 51.6104C405.755 51.6104 402.895 51.8104 400.071 52.2104V56.3904C400.071 56.3104 400.071 56.2304 400.071 56.1604C402.882 55.7304 405.755 55.5104 408.615 55.5104C412.012 55.5104 415.361 55.8104 418.625 56.4004C415.361 56.9904 412.012 57.2904 408.615 57.2904C405.755 57.2904 402.882 57.0704 400.071 56.6404C400.071 56.5604 400.071 56.4804 400.071 56.4004V60.5804C402.895 60.9704 405.755 61.1804 408.615 61.1804C415.154 61.1804 421.546 60.1704 427.608 58.1804C444.658 64.3404 455.67 78.1704 455.67 93.4204V104.39H460.425V93.4204V93.4104ZM468.479 61.5504C469.274 61.6504 470.031 61.7204 470.765 61.7804C471.131 61.8104 471.486 61.8304 471.828 61.8404C472.512 61.8704 473.16 61.8904 473.759 61.8904C474.358 61.8904 474.896 61.8904 475.385 61.8704C474.932 62.1804 474.48 62.5004 474.04 62.8204C472.72 63.7904 471.461 64.8104 470.276 65.8904C470.154 65.6404 470.007 65.3404 469.811 65.0004C469.689 64.7704 469.542 64.5204 469.371 64.2504C469.127 63.8504 468.834 63.4104 468.491 62.9304C468.21 62.5304 467.905 62.1404 467.587 61.7604C467.477 61.6304 467.379 61.5004 467.269 61.3804C467.672 61.4404 468.076 61.5004 468.479 61.5504ZM476.802 53.5504C478.526 54.5904 480.335 55.5404 482.205 56.4004C480.347 57.2504 478.538 58.2104 476.802 59.2504C475.397 59.3804 471.486 59.6304 466.951 58.8204C466.084 57.9704 465.13 57.1604 464.116 56.4004C465.13 55.6404 466.084 54.8404 466.951 53.9804C471.486 53.1704 475.409 53.4204 476.802 53.5504ZM456.465 56.4004L458.017 55.6104L459.471 56.4004L458.017 57.1904L456.465 56.4004ZM456.477 57.8104C455.609 58.1904 454.717 58.5404 453.812 58.8404C453.507 58.9404 453.201 59.0404 452.896 59.1304C453.678 58.3904 454.497 57.7204 455.34 57.1204C455.719 57.3604 456.098 57.5904 456.477 57.8004V57.8104ZM455.34 55.6704C454.497 55.0704 453.678 54.4004 452.896 53.6604C453.201 53.7504 453.507 53.8504 453.812 53.9504C454.729 54.2604 455.609 54.6004 456.477 54.9804C456.098 55.1904 455.719 55.4204 455.34 55.6604V55.6704ZM474.028 49.9804C474.468 50.3004 474.92 50.6204 475.372 50.9304C474.884 50.9104 474.346 50.9004 473.747 50.9104C473.148 50.9104 472.5 50.9304 471.816 50.9604C471.474 50.9804 471.119 51.0004 470.752 51.0204C470.019 51.0704 469.261 51.1504 468.467 51.2504C468.076 51.3004 467.672 51.3604 467.257 51.4204C467.367 51.2904 467.465 51.1704 467.575 51.0404C467.892 50.6604 468.198 50.2704 468.479 49.8704C468.821 49.4004 469.102 48.9504 469.359 48.5504C469.518 48.2804 469.665 48.0304 469.799 47.8004C469.995 47.4504 470.141 47.1504 470.264 46.9104C471.449 47.9804 472.708 49.0104 474.028 49.9804ZM442.886 51.2104H440.295C440.845 50.8404 441.382 50.4704 441.908 50.0804C442.434 49.7004 442.959 49.3004 443.46 48.9004C444.475 48.1004 445.44 47.2604 446.369 46.3904C446.687 47.1604 447.029 47.9004 447.396 48.6004C447.64 49.0704 447.897 49.5204 448.166 49.9604C448.569 50.6104 448.997 51.2304 449.449 51.8204C447.31 51.4304 445.11 51.2104 442.874 51.2104H442.886ZM452.59 51.1304C451.258 49.5204 450.158 47.6704 449.315 45.6004C453.201 41.5504 456.159 36.9604 458.041 32.0704C460.034 37.2604 463.248 42.1204 467.501 46.3504C467.208 46.9204 466.744 47.7404 466.059 48.7104C465.619 49.3204 465.13 49.9304 464.58 50.5404L458.017 52.8404L452.59 51.1304ZM460.474 55.9104C459.972 55.6104 459.459 55.3304 458.946 55.0504C459.789 54.6504 460.632 54.3104 461.488 54.0104C462.331 53.7104 463.187 53.4504 464.03 53.2304C462.942 54.2104 461.757 55.1004 460.486 55.9004L460.474 55.9104ZM439.341 59.2804C437.594 58.2304 435.772 57.2604 433.89 56.4004C435.772 55.5404 437.594 54.5704 439.341 53.5204H442.886C445.086 53.5204 447.298 53.7404 449.449 54.1904C450.182 54.9704 450.965 55.7104 451.82 56.4104C450.965 57.1004 450.17 57.8504 449.449 58.6304C447.298 59.0704 445.086 59.3004 442.886 59.3004H439.341V59.2804ZM461.476 58.7904C460.632 58.4904 459.777 58.1404 458.934 57.7504C459.459 57.4804 459.96 57.1904 460.461 56.8904C461.732 57.7004 462.918 58.5904 464.006 59.5604C463.162 59.3404 462.319 59.0904 461.464 58.7804L461.476 58.7904ZM443.46 63.8904C442.947 63.4904 442.434 63.0904 441.908 62.7104C441.382 62.3304 440.845 61.9504 440.295 61.5804H442.886C445.122 61.5804 447.322 61.3604 449.461 60.9704C449.009 61.5504 448.581 62.1704 448.178 62.8304C447.909 63.2704 447.652 63.7204 447.408 64.1904C447.041 64.8904 446.699 65.6304 446.381 66.4004C445.452 65.5304 444.487 64.7004 443.472 63.8904H443.46ZM449.315 67.2004C450.158 65.1304 451.258 63.2704 452.59 61.6704L458.017 59.9604L464.58 62.2604C465.13 62.8704 465.619 63.4804 466.059 64.0904C466.744 65.0504 467.208 65.8704 467.501 66.4504C463.236 70.6804 460.034 75.5404 458.041 80.7304C456.159 75.8504 453.201 71.2504 449.315 67.2004Z" fill="#4B3425"/>
</g>
</g>
</g>
<defs>
<clipPath id="clip0_4484_8136">
<rect width="440" height="360" fill="white"/>
</clipPath>
</defs>
</svg>
