<svg width="714" height="580" viewBox="0 0 714 580" fill="none" xmlns="http://www.w3.org/2000/svg">
<path d="M271.034 211.497C262.073 204.933 253.111 198.994 244.15 193.785C229.978 185.554 217.994 179.928 209.554 176.49C147.448 227.645 76.2772 266.194 0 290.052C71.6923 312.556 139.112 348.084 198.508 394.759C228.832 384.653 256.133 371.525 279.683 355.481L304.796 290.365L271.034 211.497Z" fill="url(#paint0_linear_4571_12889)"/>
<path d="M399.306 514.572V472.065C399.306 445.602 396.076 419.139 389.511 393.301C378.048 384.549 367.211 375.068 356.999 364.754C346.787 374.964 335.95 384.549 324.488 393.301C318.027 419.139 314.692 445.602 314.692 472.065V514.572C330.115 535.514 344.286 557.393 356.999 580.001C369.712 557.393 383.779 535.514 399.306 514.572Z" fill="#77C2C3"/>
<path d="M357.001 0C344.497 22.3999 330.534 44.0703 315.216 64.8032C313.236 81.5771 309.693 128.565 321.572 183.054C334.076 193.576 345.956 204.933 357.001 217.122C368.151 204.933 379.926 193.576 392.431 183.054C404.31 128.565 400.663 81.5771 398.787 64.8032C383.573 44.0703 369.506 22.3999 357.001 0Z" fill="#77C2C3"/>
<path d="M242.69 417.784C232.374 422.264 221.537 426.327 210.179 430.182C222.892 441.33 235.188 452.998 246.963 465.084C252.902 471.127 258.634 477.378 264.261 483.733C269.888 490.088 275.41 496.548 280.829 503.112V471.96C280.829 445.08 284.059 418.721 289.79 393.092C281.246 398.509 272.18 403.614 262.489 408.511C256.132 411.741 249.464 414.866 242.586 417.784H242.69Z" fill="url(#paint1_linear_4571_12889)"/>
<path d="M310.528 218.268C313.758 228.374 317.51 238.584 321.886 248.794C326.263 259.004 331.369 269.214 337.204 279.216C341.164 272.965 345.436 266.818 349.709 260.775C337.934 245.564 324.804 231.291 310.424 218.268H310.528Z" fill="url(#paint2_linear_4571_12889)"/>
<path d="M345.435 290.365L357.001 309.014L368.568 290.365L357.001 272.861L345.435 290.365Z" fill="#77C2C3"/>
<path d="M397.223 351.833C395.869 348.083 394.41 344.436 392.951 340.79C388.47 329.85 383.364 319.119 377.842 308.805C374.715 313.389 371.277 317.973 367.838 322.453C376.591 332.663 386.386 342.457 397.328 351.833H397.223Z" fill="#77C2C3"/>
<path d="M321.051 340.79C319.592 344.436 318.133 348.083 316.778 351.833C327.72 342.457 337.411 332.663 346.268 322.453C342.829 317.973 339.391 313.389 336.264 308.805C330.637 319.223 325.636 329.85 321.155 340.79H321.051Z" fill="url(#paint3_linear_4571_12889)"/>
<path d="M364.187 260.881C368.564 266.923 372.732 272.966 376.692 279.321C382.527 269.215 387.529 259.109 392.01 248.899C396.386 238.689 400.242 228.479 403.368 218.373C389.092 231.396 375.962 245.67 364.083 260.881H364.187Z" fill="#77C2C3"/>
<path d="M433.066 503.111C438.484 496.547 444.007 489.984 449.634 483.732C455.261 477.377 461.097 471.126 466.932 465.083C478.707 452.893 491.003 441.225 503.716 430.181C492.358 426.43 481.521 422.263 471.204 417.887C464.327 414.97 457.658 411.844 451.302 408.615C441.715 403.718 432.649 398.613 424 393.195C429.835 418.825 432.962 445.184 432.962 472.064V503.215L433.066 503.111Z" fill="#77C2C3"/>
<path d="M434.317 355.481C457.867 371.525 485.169 384.653 515.492 394.759C574.888 348.084 642.308 312.556 714 290.052C637.827 266.09 566.552 227.645 504.446 176.49C496.006 179.928 484.023 185.554 469.851 193.785C460.889 198.994 451.928 204.933 442.966 211.497L409.204 290.365L434.317 355.481Z" fill="#77C2C3"/>
<path d="M435.88 137.317C435.151 146.068 434.005 155.236 432.546 164.717C431.816 169.51 430.983 174.302 430.045 179.199C431.921 177.949 433.796 176.699 435.672 175.448C441.299 171.698 446.926 168.051 452.761 164.613C459.743 160.55 466.204 157.112 472.143 154.09C476.103 152.111 479.75 150.34 483.085 148.881C488.191 146.589 492.567 144.714 496.214 143.359C480.48 129.086 465.474 114.083 451.198 98.1427C446.405 92.8293 441.82 87.4118 437.235 81.9941C437.443 87.8285 437.652 94.288 437.548 101.477C437.548 108.666 437.235 116.375 436.818 124.606C436.61 128.773 436.297 132.941 435.88 137.317Z" fill="#77C2C3"/>
<path d="M276.765 81.8887C272.18 87.4105 267.595 92.724 262.801 98.0374C248.525 113.978 233.52 129.085 217.785 143.254C221.432 144.712 225.809 146.484 230.915 148.776C234.249 150.338 238.001 152.005 241.856 153.985C247.796 156.902 254.256 160.445 261.238 164.508C267.074 167.946 272.805 171.592 278.328 175.343C280.203 176.593 282.079 177.843 283.955 179.094C283.017 174.197 282.183 169.3 281.454 164.612C279.995 155.131 278.953 145.963 278.119 137.211C277.702 132.835 277.39 128.564 277.181 124.5C276.66 116.27 276.452 108.456 276.452 101.371C276.452 94.1827 276.452 87.7231 276.765 81.8887Z" fill="url(#paint4_linear_4571_12889)"/>
<defs>
<linearGradient id="paint0_linear_4571_12889" x1="383.567" y1="285.624" x2="193.633" y2="285.624" gradientUnits="userSpaceOnUse">
<stop stop-color="#77C2C3"/>
<stop offset="1" stop-color="#99EDEE"/>
</linearGradient>
<linearGradient id="paint1_linear_4571_12889" x1="249.985" y1="393.092" x2="249.985" y2="503.112" gradientUnits="userSpaceOnUse">
<stop stop-color="#79C5C6"/>
<stop offset="1" stop-color="#99EDEE"/>
</linearGradient>
<linearGradient id="paint2_linear_4571_12889" x1="330.066" y1="218.268" x2="330.066" y2="279.216" gradientUnits="userSpaceOnUse">
<stop stop-color="#79C5C6"/>
<stop offset="1" stop-color="#99EDEE"/>
</linearGradient>
<linearGradient id="paint3_linear_4571_12889" x1="331.523" y1="308.805" x2="331.523" y2="351.833" gradientUnits="userSpaceOnUse">
<stop stop-color="#79C5C6"/>
<stop offset="1" stop-color="#99EDEE"/>
</linearGradient>
<linearGradient id="paint4_linear_4571_12889" x1="250.87" y1="81.8887" x2="250.87" y2="179.094" gradientUnits="userSpaceOnUse">
<stop stop-color="#79C5C6"/>
<stop offset="1" stop-color="#99EDEE"/>
</linearGradient>
</defs>
</svg>
