<svg width="40" height="45" viewBox="0 0 40 45" fill="none" xmlns="http://www.w3.org/2000/svg">
<g filter="url(#filter0_ddddd_4561_8864)">
<rect x="4" width="32" height="32" rx="16" fill="#FFCE5C"/>
<path fill-rule="evenodd" clip-rule="evenodd" d="M22.3333 7C23.0697 7 23.6667 7.59695 23.6667 8.33333L23.6667 12.3333C23.6667 13.0697 23.0697 13.6667 22.3333 13.6667C21.597 13.6667 21 13.0697 21 12.3333L21 8.33333C21 7.59695 21.597 7 22.3333 7Z" fill="#29321A"/>
<path fill-rule="evenodd" clip-rule="evenodd" d="M10.3333 7C11.0697 7 11.6667 7.59695 11.6667 8.33333L11.6667 12.3333C11.6667 13.0697 11.0697 13.6667 10.3333 13.6667C9.59695 13.6667 9 13.0697 9 12.3333L9 8.33333C9 7.59695 9.59695 7 10.3333 7Z" fill="#29321A"/>
<path fill-rule="evenodd" clip-rule="evenodd" d="M24.7277 14.3387C25.439 14.5293 25.8611 15.2604 25.6705 15.9717C25.2147 17.6728 24.2103 19.1759 22.8132 20.248C21.416 21.3201 19.7042 21.9012 17.9431 21.9012C16.182 21.9012 14.4702 21.3201 13.073 20.248C11.6758 19.1759 10.6715 17.6728 10.2157 15.9717C10.0251 15.2604 10.4472 14.5293 11.1585 14.3387C11.8698 14.1481 12.6009 14.5703 12.7915 15.2815C13.0954 16.4156 13.7649 17.4177 14.6964 18.1324C15.6278 18.8471 16.769 19.2345 17.9431 19.2345C19.1171 19.2345 20.2584 18.8471 21.1898 18.1324C22.1213 17.4177 22.7908 16.4156 23.0947 15.2815C23.2853 14.5703 24.0164 14.1481 24.7277 14.3387Z" fill="#29321A"/>
</g>
<defs>
<filter id="filter0_ddddd_4561_8864" x="0" y="0" width="40" height="45" filterUnits="userSpaceOnUse" color-interpolation-filters="sRGB">
<feFlood flood-opacity="0" result="BackgroundImageFix"/>
<feColorMatrix in="SourceAlpha" type="matrix" values="0 0 0 0 0 0 0 0 0 0 0 0 0 0 0 0 0 0 127 0" result="hardAlpha"/>
<feOffset/>
<feColorMatrix type="matrix" values="0 0 0 0 0.294118 0 0 0 0 0.203922 0 0 0 0 0.145098 0 0 0 0.05 0"/>
<feBlend mode="normal" in2="BackgroundImageFix" result="effect1_dropShadow_4561_8864"/>
<feColorMatrix in="SourceAlpha" type="matrix" values="0 0 0 0 0 0 0 0 0 0 0 0 0 0 0 0 0 0 127 0" result="hardAlpha"/>
<feOffset dy="1"/>
<feGaussianBlur stdDeviation="0.5"/>
<feColorMatrix type="matrix" values="0 0 0 0 0.294118 0 0 0 0 0.203922 0 0 0 0 0.145098 0 0 0 0.05 0"/>
<feBlend mode="normal" in2="effect1_dropShadow_4561_8864" result="effect2_dropShadow_4561_8864"/>
<feColorMatrix in="SourceAlpha" type="matrix" values="0 0 0 0 0 0 0 0 0 0 0 0 0 0 0 0 0 0 127 0" result="hardAlpha"/>
<feOffset dy="2"/>
<feGaussianBlur stdDeviation="1"/>
<feColorMatrix type="matrix" values="0 0 0 0 0.294118 0 0 0 0 0.203922 0 0 0 0 0.145098 0 0 0 0.04 0"/>
<feBlend mode="normal" in2="effect2_dropShadow_4561_8864" result="effect3_dropShadow_4561_8864"/>
<feColorMatrix in="SourceAlpha" type="matrix" values="0 0 0 0 0 0 0 0 0 0 0 0 0 0 0 0 0 0 127 0" result="hardAlpha"/>
<feOffset dy="5"/>
<feGaussianBlur stdDeviation="1.5"/>
<feColorMatrix type="matrix" values="0 0 0 0 0.294118 0 0 0 0 0.203922 0 0 0 0 0.145098 0 0 0 0.03 0"/>
<feBlend mode="normal" in2="effect3_dropShadow_4561_8864" result="effect4_dropShadow_4561_8864"/>
<feColorMatrix in="SourceAlpha" type="matrix" values="0 0 0 0 0 0 0 0 0 0 0 0 0 0 0 0 0 0 127 0" result="hardAlpha"/>
<feOffset dy="9"/>
<feGaussianBlur stdDeviation="2"/>
<feColorMatrix type="matrix" values="0 0 0 0 0.294118 0 0 0 0 0.203922 0 0 0 0 0.145098 0 0 0 0.01 0"/>
<feBlend mode="normal" in2="effect4_dropShadow_4561_8864" result="effect5_dropShadow_4561_8864"/>
<feBlend mode="normal" in="SourceGraphic" in2="effect5_dropShadow_4561_8864" result="shape"/>
</filter>
</defs>
</svg>
