<svg width="20" height="20" viewBox="0 0 20 20" fill="none" xmlns="http://www.w3.org/2000/svg">
<path d="M10.0002 17.9173C9.69891 17.9173 9.4119 17.861 9.13912 17.7484C8.8662 17.6357 8.6244 17.473 8.4137 17.2602C7.99482 16.8468 7.63558 16.5762 7.336 16.4486C7.03627 16.3209 6.58676 16.2571 5.98745 16.2571C5.36412 16.2571 4.83433 16.039 4.39808 15.6027C3.96183 15.1665 3.7437 14.6367 3.7437 14.0134C3.7437 13.4195 3.67968 12.9711 3.55162 12.6684C3.42357 12.3656 3.15322 12.0052 2.74058 11.5871C2.52586 11.3724 2.36266 11.1288 2.251 10.8565C2.13933 10.5841 2.0835 10.2994 2.0835 10.0023C2.0835 9.70523 2.13933 9.41996 2.251 9.14648C2.36266 8.87301 2.52586 8.62891 2.74058 8.41419C3.15322 7.99905 3.42357 7.64121 3.55162 7.34065C3.67968 7.03996 3.7437 6.58905 3.7437 5.98794C3.7437 5.36461 3.96183 4.83482 4.39808 4.39857C4.83433 3.96232 5.36412 3.74419 5.98745 3.74419C6.58134 3.74419 7.02947 3.68169 7.33183 3.55669C7.63419 3.43169 7.99482 3.15982 8.4137 2.74107C8.62843 2.53162 8.8712 2.36975 9.14204 2.25544C9.41287 2.14114 9.69759 2.08398 9.9962 2.08398C10.2948 2.08398 10.5809 2.13982 10.8543 2.25148C11.1278 2.36315 11.3719 2.52635 11.5866 2.74107C12.0018 3.15371 12.3596 3.42405 12.6602 3.55211C12.9609 3.68016 13.4118 3.74419 14.0129 3.74419C14.6362 3.74419 15.166 3.96232 15.6022 4.39857C16.0385 4.83482 16.2566 5.36461 16.2566 5.98794C16.2566 6.58183 16.3206 7.03016 16.4487 7.33294C16.5768 7.63572 16.8471 7.99614 17.2597 8.41419C17.4745 8.62891 17.6377 8.87246 17.7493 9.14482C17.861 9.41718 17.9168 9.7019 17.9168 9.99898C17.9168 10.2961 17.861 10.5813 17.7493 10.8548C17.6377 11.1283 17.4745 11.3724 17.2597 11.5871C16.841 12.006 16.5691 12.3652 16.4441 12.6648C16.3191 12.9645 16.2566 13.4141 16.2566 14.0134C16.2566 14.6367 16.0385 15.1665 15.6022 15.6027C15.166 16.039 14.6362 16.2571 14.0129 16.2571C13.419 16.2571 12.9709 16.3196 12.6685 16.4446C12.3661 16.5696 12.0055 16.8415 11.5866 17.2602C11.3719 17.4697 11.1291 17.6316 10.8583 17.7459C10.5875 17.8602 10.3014 17.9173 10.0002 17.9173ZM12.0289 13.0536C12.3164 13.0536 12.559 12.9547 12.7566 12.7571C12.9543 12.5595 13.0531 12.3169 13.0531 12.0294C13.0531 11.7418 12.9543 11.4973 12.7566 11.2961C12.559 11.0948 12.3164 10.9942 12.0289 10.9942C11.7413 10.9942 11.4968 11.0948 11.2956 11.2961C11.0943 11.4973 10.9937 11.7418 10.9937 12.0294C10.9937 12.3169 11.0943 12.5595 11.2956 12.7571C11.4968 12.9547 11.7413 13.0536 12.0289 13.0536ZM7.49912 12.5086C7.62218 12.6326 7.76586 12.6946 7.93016 12.6946C8.09433 12.6946 8.23836 12.6326 8.36225 12.5086L12.5002 8.39169C12.6295 8.2678 12.6941 8.12065 12.6941 7.95023C12.6941 7.77982 12.6295 7.62996 12.5002 7.50065C12.3709 7.37135 12.2224 7.30669 12.0547 7.30669C11.887 7.30669 11.7384 7.37135 11.6091 7.50065L7.49225 11.6386C7.36822 11.7625 7.30759 11.9075 7.31037 12.0736C7.31301 12.2397 7.37593 12.3847 7.49912 12.5086ZM7.97141 9.00711C8.25905 9.00711 8.5035 8.90648 8.70475 8.70523C8.906 8.50398 9.00662 8.25954 9.00662 7.9719C9.00662 7.6844 8.906 7.44183 8.70475 7.24419C8.5035 7.04655 8.25905 6.94773 7.97141 6.94773C7.68391 6.94773 7.44134 7.04655 7.2437 7.24419C7.04607 7.44183 6.94725 7.6844 6.94725 7.9719C6.94725 8.25954 7.04607 8.50398 7.2437 8.70523C7.44134 8.90648 7.68391 9.00711 7.97141 9.00711Z" fill="url(#paint0_linear_4571_12318)"/>
<defs>
<linearGradient id="paint0_linear_4571_12318" x1="17.9168" y1="10.0007" x2="2.0835" y2="10.0007" gradientUnits="userSpaceOnUse">
<stop stop-color="#F5F190"/>
<stop offset="0.233553" stop-color="#E0AB3B"/>
<stop offset="1" stop-color="#FAF398"/>
</linearGradient>
</defs>
</svg>
