<svg width="405" height="410" viewBox="0 0 405 410" fill="none" xmlns="http://www.w3.org/2000/svg">
<path d="M287.106 73.2053C262.595 84.6156 233.585 73.7047 222.244 48.8103C203.245 6.82715 154.165 -11.6321 112.771 7.63733C71.3778 26.9067 53.1778 76.686 72.1766 118.669C83.4266 143.529 72.669 172.953 48.1242 184.456C6.7307 203.725 -11.4693 253.504 7.52951 295.487C26.5283 337.471 75.6084 355.93 117.002 336.66C141.513 325.25 170.523 336.161 181.864 361.055C200.863 403.039 249.943 421.498 291.337 402.228C332.73 382.959 350.93 333.18 331.931 291.197C320.681 266.336 331.439 236.913 355.984 225.41C397.377 206.141 415.577 156.361 396.579 114.378C377.58 72.3951 328.591 53.9702 287.106 73.2053Z" fill="#92ECED" fill-opacity="0.1"/>
<path d="M278.005 84.7203C255.827 95.0446 229.578 85.1722 219.316 62.647C202.125 24.6595 157.716 7.95708 120.262 25.3926C82.8084 42.828 66.3406 87.8697 83.5312 125.857C93.7105 148.351 83.9768 174.974 61.768 185.383C24.314 202.818 7.84617 247.86 25.0368 285.847C42.2274 323.835 86.6364 340.537 124.09 323.102C146.269 312.777 172.518 322.65 182.78 345.175C199.97 383.162 244.379 399.865 281.833 382.429C319.287 364.994 335.755 319.952 318.565 281.965C308.385 259.471 318.119 232.847 340.328 222.439C377.782 205.004 394.25 159.962 377.059 121.975C359.868 83.9872 315.542 67.3158 278.005 84.7203Z" fill="#92ECED" fill-opacity="0.2"/>
</svg>
