<svg width="194" height="187" viewBox="0 0 194 187" fill="none" xmlns="http://www.w3.org/2000/svg">
<path d="M97 11.5461C111.911 -10.1942 145.966 0.877258 145.21 27.1971C170.046 18.3903 191.103 47.327 175.033 68.1615C200.322 75.6096 200.322 111.39 175.033 118.839C191.103 139.723 170.046 168.66 145.21 159.803C145.916 186.123 111.861 197.194 97 175.454C82.0886 197.194 48.034 186.123 48.7897 159.803C23.954 168.61 2.89665 139.673 18.9668 118.839C-6.32225 111.39 -6.32225 75.6096 18.9668 68.1615C2.89665 47.2767 23.954 18.34 48.7897 27.1971C48.034 0.877258 82.0886 -10.1942 97 11.5461Z" fill="url(#paint0_linear_4571_12371)"/>
<path d="M97 24.6321C109.452 6.49576 137.889 15.7318 137.258 37.6885C157.997 30.3416 175.581 54.4814 162.162 71.862C183.279 78.0753 183.279 107.925 162.162 114.138C175.581 131.561 157.997 155.7 137.258 148.312C137.847 170.268 109.41 179.504 97 161.368C84.5482 179.504 56.1109 170.268 56.7419 148.312C36.0029 155.658 18.4189 131.519 31.8382 114.138C10.7206 107.925 10.7206 78.0753 31.8382 71.862C18.4189 54.4394 36.0029 30.2996 56.7419 37.6885C56.1109 15.7318 84.5482 6.49576 97 24.6321Z" fill="#77C2C3"/>
<defs>
<linearGradient id="paint0_linear_4571_12371" x1="97" y1="0" x2="97" y2="187" gradientUnits="userSpaceOnUse">
<stop stop-color="#96DDDE"/>
<stop offset="1" stop-color="#96EDEE"/>
</linearGradient>
</defs>
</svg>
