<svg width="231" height="231" viewBox="0 0 231 231" fill="none" xmlns="http://www.w3.org/2000/svg">
<g opacity="0.2" clip-path="url(#clip0_4571_12725)">
<path d="M104.304 1.67003C125.268 10.6215 140.856 30.3623 143.347 54.6173C145.837 78.8721 134.588 101.38 115.881 114.429C94.9171 105.477 79.3292 85.7378 76.8389 61.4832C74.3487 37.2284 85.6013 14.7176 104.304 1.67003Z" fill="white" stroke="url(#paint0_radial_4571_12725)" stroke-width="2"/>
<path d="M104.304 1.67003C125.268 10.6215 140.856 30.3623 143.347 54.6173C145.837 78.8721 134.588 101.38 115.881 114.429C94.9171 105.477 79.3292 85.7378 76.8389 61.4832C74.3487 37.2284 85.6013 14.7176 104.304 1.67003Z" fill="white" stroke="url(#paint1_radial_4571_12725)" stroke-width="2"/>
<path d="M57.29 17.1445C80.096 16.5056 102.551 27.9089 115.004 48.8838C127.456 69.8577 126.697 94.9886 115.188 114.652C92.3817 115.291 69.9268 103.89 57.4736 82.915C45.0209 61.9409 45.7841 36.8049 57.29 17.1445Z" fill="white" stroke="url(#paint2_radial_4571_12725)" stroke-width="2"/>
<path d="M57.29 17.1445C80.096 16.5056 102.551 27.9089 115.004 48.8838C127.456 69.8577 126.697 94.9886 115.188 114.652C92.3817 115.291 69.9268 103.89 57.4736 82.915C45.0209 61.9409 45.7841 36.8049 57.29 17.1445Z" fill="white" stroke="url(#paint3_radial_4571_12725)" stroke-width="2"/>
<path d="M15.1572 60.6719C34.4485 48.5164 59.5906 46.8958 81.0176 58.6025C102.444 70.3052 114.624 92.3165 114.77 115.087C95.4784 127.242 70.3378 128.864 48.9111 117.157C27.4846 105.451 15.3025 83.4425 15.1572 60.6719Z" fill="white" stroke="url(#paint4_radial_4571_12725)" stroke-width="2"/>
<path d="M15.1572 60.6719C34.4485 48.5164 59.5906 46.8958 81.0176 58.6025C102.444 70.3052 114.624 92.3165 114.77 115.087C95.4784 127.242 70.3378 128.864 48.9111 117.157C27.4846 105.451 15.3025 83.4425 15.1572 60.6719Z" fill="white" stroke="url(#paint5_radial_4571_12725)" stroke-width="2"/>
<path d="M56.7393 84.2637C81.1506 83.4255 102.872 96.1614 114.626 115.676C104.241 135.949 83.4433 150.141 59.0312 150.976C34.6188 151.81 12.8957 139.077 1.14258 119.562C11.5313 99.2851 32.3274 85.0983 56.7393 84.2637Z" fill="white" stroke="url(#paint6_radial_4571_12725)" stroke-width="2"/>
<path d="M56.7393 84.2637C81.1506 83.4255 102.872 96.1614 114.626 115.676C104.241 135.949 83.4433 150.141 59.0312 150.976C34.6188 151.81 12.8957 139.077 1.14258 119.562C11.5313 99.2851 32.3274 85.0983 56.7393 84.2637Z" fill="white" stroke="url(#paint7_radial_4571_12725)" stroke-width="2"/>
<path d="M48.9629 118.691C69.5352 105.55 94.728 105.445 114.814 116.254C116.231 138.979 105.591 161.769 85.0156 174.914C64.4393 188.059 39.2462 188.16 19.167 177.354C17.7693 154.983 28.0587 132.554 47.998 119.319L48.9629 118.691Z" fill="white" stroke="url(#paint8_radial_4571_12725)" stroke-width="2"/>
<path d="M48.9629 118.691C69.5352 105.55 94.728 105.445 114.814 116.254C116.231 138.979 105.591 161.769 85.0156 174.914C64.4393 188.059 39.2462 188.16 19.167 177.354C17.7693 154.983 28.0587 132.554 47.998 119.319L48.9629 118.691Z" fill="white" stroke="url(#paint9_radial_4571_12725)" stroke-width="2"/>
<path d="M115.259 116.657C128.092 135.484 130.578 160.51 119.592 182.286C108.605 204.063 86.988 216.971 64.1914 217.895C51.359 199.068 48.8755 174.043 59.8613 152.268V152.267C70.8437 130.491 92.4631 117.582 115.259 116.657Z" fill="white" stroke="url(#paint10_radial_4571_12725)" stroke-width="2"/>
<path d="M115.259 116.657C128.092 135.484 130.578 160.51 119.592 182.286C108.605 204.063 86.988 216.971 64.1914 217.895C51.359 199.068 48.8755 174.043 59.8613 152.268V152.267C70.8437 130.491 92.4631 117.582 115.259 116.657Z" fill="white" stroke="url(#paint11_radial_4571_12725)" stroke-width="2"/>
<path d="M115.852 116.776C136.507 126.443 151.428 146.708 153.101 171.032C154.773 195.355 142.769 217.463 123.631 229.858C102.977 220.191 88.0559 199.928 86.3838 175.604C84.7118 151.281 96.713 129.172 115.852 116.776Z" fill="white" stroke="url(#paint12_radial_4571_12725)" stroke-width="2"/>
<path d="M115.852 116.776C136.507 126.443 151.428 146.708 153.101 171.032C154.773 195.355 142.769 217.463 123.631 229.858C102.977 220.191 88.0559 199.928 86.3838 175.604C84.7118 151.281 96.713 129.172 115.852 116.776Z" fill="white" stroke="url(#paint13_radial_4571_12725)" stroke-width="2"/>
<path d="M116.422 116.575C139.131 114.38 162.317 124.218 176.179 144.292C190.04 164.366 191.007 189.493 180.875 209.896C158.166 212.09 134.984 202.254 121.119 182.18C107.255 162.11 106.29 136.981 116.422 116.575Z" fill="white" stroke="url(#paint14_radial_4571_12725)" stroke-width="2"/>
<path d="M116.422 116.575C139.131 114.38 162.317 124.218 176.179 144.292C190.04 164.366 191.007 189.493 180.875 209.896C158.166 212.09 134.984 202.254 121.119 182.18C107.255 162.11 106.29 136.981 116.422 116.575Z" fill="white" stroke="url(#paint15_radial_4571_12725)" stroke-width="2"/>
<path d="M116.812 116.115C135.224 102.668 160.196 99.3329 182.375 109.546C204.553 119.759 218.217 140.883 219.924 163.589C201.513 177.036 176.541 180.372 154.362 170.159C132.184 159.946 118.519 138.821 116.812 116.115Z" fill="white" stroke="url(#paint16_radial_4571_12725)" stroke-width="2"/>
<path d="M116.812 116.115C135.224 102.668 160.196 99.3329 182.375 109.546C204.553 119.759 218.217 140.883 219.924 163.589C201.513 177.036 176.541 180.372 154.362 170.159C132.184 159.946 118.519 138.821 116.812 116.115Z" fill="white" stroke="url(#paint17_radial_4571_12725)" stroke-width="2"/>
<path d="M169.954 76.502C194.249 73.9981 216.796 85.2178 229.862 103.884C220.894 124.82 201.119 140.397 176.82 142.9C152.522 145.4 129.978 134.185 116.912 115.519C125.88 94.5828 145.659 79.0058 169.954 76.502Z" fill="white" stroke="url(#paint18_radial_4571_12725)" stroke-width="2"/>
<path d="M169.954 76.502C194.249 73.9981 216.796 85.2178 229.862 103.884C220.894 124.82 201.119 140.397 176.82 142.9C152.522 145.4 129.978 134.185 116.912 115.519C125.88 94.5828 145.659 79.0058 169.954 76.502Z" fill="white" stroke="url(#paint19_radial_4571_12725)" stroke-width="2"/>
<path d="M142.392 54.3916C162.014 39.8739 187.141 38.0472 207.916 47.4561C210.892 70.0301 201.84 93.4989 182.218 108.017C162.591 122.538 137.467 124.36 116.692 114.95C113.717 92.3767 122.77 68.909 142.392 54.3916Z" fill="white" stroke="url(#paint20_radial_4571_12725)" stroke-width="2"/>
<path d="M142.392 54.3916C162.014 39.8739 187.141 38.0472 207.916 47.4561C210.892 70.0301 201.84 93.4989 182.218 108.017C162.591 122.538 137.467 124.36 116.692 114.95C113.717 92.3767 122.77 68.909 142.392 54.3916Z" fill="white" stroke="url(#paint21_radial_4571_12725)" stroke-width="2"/>
<path d="M160.22 10.0869C174.311 27.9944 178.506 52.7898 169.042 75.2646C159.578 97.7435 138.894 112.1 116.217 114.578C102.126 96.6705 97.9303 71.8752 107.395 49.4004C116.859 26.9253 137.543 12.5651 160.22 10.0869Z" fill="white" stroke="url(#paint22_radial_4571_12725)" stroke-width="2"/>
<path d="M160.22 10.0869C174.311 27.9944 178.506 52.7898 169.042 75.2646C159.578 97.7435 138.894 112.1 116.217 114.578C102.126 96.6705 97.9303 71.8752 107.395 49.4004C116.859 26.9253 137.543 12.5651 160.22 10.0869Z" fill="white" stroke="url(#paint23_radial_4571_12725)" stroke-width="2"/>
</g>
<defs>
<radialGradient id="paint0_radial_4571_12725" cx="0" cy="0" r="1" gradientTransform="matrix(-20.914 45.2139 -35.2535 -16.2353 110.093 58.0507)" gradientUnits="userSpaceOnUse">
<stop stop-color="#F4F6F1"/>
<stop offset="1" stop-color="#77C2C3"/>
</radialGradient>
<radialGradient id="paint1_radial_4571_12725" cx="0" cy="0" r="1" gradientTransform="matrix(-20.914 45.2139 -35.2535 -16.2353 110.093 58.0507)" gradientUnits="userSpaceOnUse">
<stop stop-color="#F4F6F1"/>
<stop offset="1" stop-color="#77C2C3"/>
</radialGradient>
<radialGradient id="paint2_radial_4571_12725" cx="0" cy="0" r="1" gradientUnits="userSpaceOnUse" gradientTransform="translate(86.2396 65.8991) rotate(90) scale(49.7819 38.8441)">
<stop stop-color="#F4F6F1"/>
<stop offset="1" stop-color="#77C2C3"/>
</radialGradient>
<radialGradient id="paint3_radial_4571_12725" cx="0" cy="0" r="1" gradientUnits="userSpaceOnUse" gradientTransform="translate(86.2396 65.8991) rotate(90) scale(49.7819 38.8441)">
<stop stop-color="#F4F6F1"/>
<stop offset="1" stop-color="#77C2C3"/>
</radialGradient>
<radialGradient id="paint4_radial_4571_12725" cx="0" cy="0" r="1" gradientUnits="userSpaceOnUse" gradientTransform="translate(64.9642 87.8797) rotate(90) scale(38.245 50.8099)">
<stop stop-color="#F4F6F1"/>
<stop offset="1" stop-color="#77C2C3"/>
</radialGradient>
<radialGradient id="paint5_radial_4571_12725" cx="0" cy="0" r="1" gradientUnits="userSpaceOnUse" gradientTransform="translate(64.9642 87.8797) rotate(90) scale(38.245 50.8099)">
<stop stop-color="#F4F6F1"/>
<stop offset="1" stop-color="#77C2C3"/>
</radialGradient>
<radialGradient id="paint6_radial_4571_12725" cx="0" cy="0" r="1" gradientUnits="userSpaceOnUse" gradientTransform="translate(57.8851 117.619) rotate(90) scale(34.3948 57.8851)">
<stop stop-color="#F4F6F1"/>
<stop offset="1" stop-color="#77C2C3"/>
</radialGradient>
<radialGradient id="paint7_radial_4571_12725" cx="0" cy="0" r="1" gradientUnits="userSpaceOnUse" gradientTransform="translate(57.8851 117.619) rotate(90) scale(34.3948 57.8851)">
<stop stop-color="#F4F6F1"/>
<stop offset="1" stop-color="#77C2C3"/>
</radialGradient>
<radialGradient id="paint8_radial_4571_12725" cx="0" cy="0" r="1" gradientUnits="userSpaceOnUse" gradientTransform="translate(66.991 146.803) rotate(90) scale(39.3385 48.951)">
<stop stop-color="#F4F6F1"/>
<stop offset="1" stop-color="#77C2C3"/>
</radialGradient>
<radialGradient id="paint9_radial_4571_12725" cx="0" cy="0" r="1" gradientUnits="userSpaceOnUse" gradientTransform="translate(66.991 146.803) rotate(90) scale(39.3385 48.951)">
<stop stop-color="#F4F6F1"/>
<stop offset="1" stop-color="#77C2C3"/>
</radialGradient>
<radialGradient id="paint10_radial_4571_12725" cx="0" cy="0" r="1" gradientUnits="userSpaceOnUse" gradientTransform="translate(89.7264 167.276) rotate(90) scale(51.6397 37.8143)">
<stop stop-color="#F4F6F1"/>
<stop offset="1" stop-color="#77C2C3"/>
</radialGradient>
<radialGradient id="paint11_radial_4571_12725" cx="0" cy="0" r="1" gradientUnits="userSpaceOnUse" gradientTransform="translate(89.7264 167.276) rotate(90) scale(51.6397 37.8143)">
<stop stop-color="#F4F6F1"/>
<stop offset="1" stop-color="#77C2C3"/>
</radialGradient>
<radialGradient id="paint12_radial_4571_12725" cx="0" cy="0" r="1" gradientUnits="userSpaceOnUse" gradientTransform="translate(119.742 173.318) rotate(90) scale(57.6816 34.5134)">
<stop stop-color="#F4F6F1"/>
<stop offset="1" stop-color="#77C2C3"/>
</radialGradient>
<radialGradient id="paint13_radial_4571_12725" cx="0" cy="0" r="1" gradientUnits="userSpaceOnUse" gradientTransform="translate(119.742 173.318) rotate(90) scale(57.6816 34.5134)">
<stop stop-color="#F4F6F1"/>
<stop offset="1" stop-color="#77C2C3"/>
</radialGradient>
<radialGradient id="paint14_radial_4571_12725" cx="0" cy="0" r="1" gradientUnits="userSpaceOnUse" gradientTransform="translate(148.648 163.236) rotate(90) scale(47.9644 40.0029)">
<stop stop-color="#F4F6F1"/>
<stop offset="1" stop-color="#77C2C3"/>
</radialGradient>
<radialGradient id="paint15_radial_4571_12725" cx="0" cy="0" r="1" gradientUnits="userSpaceOnUse" gradientTransform="translate(148.648 163.236) rotate(90) scale(47.9644 40.0029)">
<stop stop-color="#F4F6F1"/>
<stop offset="1" stop-color="#77C2C3"/>
</radialGradient>
<radialGradient id="paint16_radial_4571_12725" cx="0" cy="0" r="1" gradientUnits="userSpaceOnUse" gradientTransform="translate(168.369 139.853) rotate(90) scale(37.2803 52.5945)">
<stop stop-color="#F4F6F1"/>
<stop offset="1" stop-color="#77C2C3"/>
</radialGradient>
<radialGradient id="paint17_radial_4571_12725" cx="0" cy="0" r="1" gradientUnits="userSpaceOnUse" gradientTransform="translate(168.369 139.853) rotate(90) scale(37.2803 52.5945)">
<stop stop-color="#F4F6F1"/>
<stop offset="1" stop-color="#77C2C3"/>
</radialGradient>
<radialGradient id="paint18_radial_4571_12725" cx="0" cy="0" r="1" gradientUnits="userSpaceOnUse" gradientTransform="translate(173.387 109.701) rotate(90) scale(34.5467 57.613)">
<stop stop-color="#F4F6F1"/>
<stop offset="1" stop-color="#77C2C3"/>
</radialGradient>
<radialGradient id="paint19_radial_4571_12725" cx="0" cy="0" r="1" gradientUnits="userSpaceOnUse" gradientTransform="translate(173.387 109.701) rotate(90) scale(34.5467 57.613)">
<stop stop-color="#F4F6F1"/>
<stop offset="1" stop-color="#77C2C3"/>
</radialGradient>
<radialGradient id="paint20_radial_4571_12725" cx="0" cy="0" r="1" gradientUnits="userSpaceOnUse" gradientTransform="translate(162.305 81.2044) rotate(90) scale(40.556 47.169)">
<stop stop-color="#F4F6F1"/>
<stop offset="1" stop-color="#77C2C3"/>
</radialGradient>
<radialGradient id="paint21_radial_4571_12725" cx="0" cy="0" r="1" gradientUnits="userSpaceOnUse" gradientTransform="translate(162.305 81.2044) rotate(90) scale(40.556 47.169)">
<stop stop-color="#F4F6F1"/>
<stop offset="1" stop-color="#77C2C3"/>
</radialGradient>
<radialGradient id="paint22_radial_4571_12725" cx="0" cy="0" r="1" gradientUnits="userSpaceOnUse" gradientTransform="translate(138.218 62.3328) rotate(90) scale(53.2996 36.9114)">
<stop stop-color="#F4F6F1"/>
<stop offset="1" stop-color="#77C2C3"/>
</radialGradient>
<radialGradient id="paint23_radial_4571_12725" cx="0" cy="0" r="1" gradientUnits="userSpaceOnUse" gradientTransform="translate(138.218 62.3328) rotate(90) scale(53.2996 36.9114)">
<stop stop-color="#F4F6F1"/>
<stop offset="1" stop-color="#77C2C3"/>
</radialGradient>
<clipPath id="clip0_4571_12725">
<rect width="231" height="231" fill="white"/>
</clipPath>
</defs>
</svg>
