<svg width="231" height="231" viewBox="0 0 231 231" fill="none" xmlns="http://www.w3.org/2000/svg">
<g opacity="0.2" clip-path="url(#clip0_4571_12762)">
<path d="M104.305 1.67003C125.269 10.6215 140.857 30.3623 143.348 54.6173C145.838 78.8721 134.589 101.38 115.882 114.429C94.9181 105.477 79.3301 85.7378 76.8399 61.4832C74.3497 37.2284 85.6023 14.7176 104.305 1.67003Z" fill="url(#paint0_linear_4571_12762)" stroke="white" stroke-width="2"/>
<path d="M104.305 1.67003C125.269 10.6215 140.857 30.3623 143.348 54.6173C145.838 78.8721 134.589 101.38 115.882 114.429C94.9181 105.477 79.3301 85.7378 76.8399 61.4832C74.3497 37.2284 85.6023 14.7176 104.305 1.67003Z" fill="url(#paint1_linear_4571_12762)" stroke="white" stroke-width="2"/>
<path d="M57.29 17.1445C80.096 16.5056 102.551 27.9089 115.004 48.8838C127.456 69.8577 126.697 94.9886 115.188 114.652C92.3817 115.291 69.9268 103.89 57.4736 82.915C45.0209 61.9409 45.7841 36.8049 57.29 17.1445Z" fill="url(#paint2_linear_4571_12762)" stroke="white" stroke-width="2"/>
<path d="M57.29 17.1445C80.096 16.5056 102.551 27.9089 115.004 48.8838C127.456 69.8577 126.697 94.9886 115.188 114.652C92.3817 115.291 69.9268 103.89 57.4736 82.915C45.0209 61.9409 45.7841 36.8049 57.29 17.1445Z" fill="url(#paint3_linear_4571_12762)" stroke="white" stroke-width="2"/>
<path d="M15.1572 60.6719C34.4485 48.5164 59.5906 46.8958 81.0176 58.6025C102.444 70.3052 114.624 92.3165 114.77 115.087C95.4784 127.242 70.3378 128.864 48.9111 117.157C27.4846 105.451 15.3025 83.4425 15.1572 60.6719Z" fill="url(#paint4_linear_4571_12762)" stroke="white" stroke-width="2"/>
<path d="M15.1572 60.6719C34.4485 48.5164 59.5906 46.8958 81.0176 58.6025C102.444 70.3052 114.624 92.3165 114.77 115.087C95.4784 127.242 70.3378 128.864 48.9111 117.157C27.4846 105.451 15.3025 83.4425 15.1572 60.6719Z" fill="url(#paint5_linear_4571_12762)" stroke="white" stroke-width="2"/>
<path d="M56.7393 84.2637C81.1506 83.4255 102.872 96.1614 114.626 115.676C104.241 135.949 83.4433 150.141 59.0312 150.976C34.6188 151.81 12.8957 139.077 1.14258 119.562C11.5313 99.2851 32.3274 85.0983 56.7393 84.2637Z" fill="url(#paint6_linear_4571_12762)" stroke="white" stroke-width="2"/>
<path d="M56.7393 84.2637C81.1506 83.4255 102.872 96.1614 114.626 115.676C104.241 135.949 83.4433 150.141 59.0312 150.976C34.6188 151.81 12.8957 139.077 1.14258 119.562C11.5313 99.2851 32.3274 85.0983 56.7393 84.2637Z" fill="url(#paint7_linear_4571_12762)" stroke="white" stroke-width="2"/>
<path d="M48.9629 118.691C69.5352 105.55 94.728 105.445 114.814 116.254C116.231 138.979 105.591 161.769 85.0156 174.914C64.4393 188.059 39.2462 188.16 19.167 177.354C17.7693 154.983 28.0587 132.554 47.998 119.319L48.9629 118.691Z" fill="url(#paint8_linear_4571_12762)" stroke="white" stroke-width="2"/>
<path d="M48.9629 118.691C69.5352 105.55 94.728 105.445 114.814 116.254C116.231 138.979 105.591 161.769 85.0156 174.914C64.4393 188.059 39.2462 188.16 19.167 177.354C17.7693 154.983 28.0587 132.554 47.998 119.319L48.9629 118.691Z" fill="url(#paint9_linear_4571_12762)" stroke="white" stroke-width="2"/>
<path d="M115.259 116.657C128.092 135.484 130.578 160.51 119.592 182.286C108.605 204.063 86.988 216.971 64.1914 217.895C51.359 199.068 48.8755 174.043 59.8613 152.268V152.267C70.8437 130.491 92.4631 117.582 115.259 116.657Z" fill="url(#paint10_linear_4571_12762)" stroke="white" stroke-width="2"/>
<path d="M115.259 116.657C128.092 135.484 130.578 160.51 119.592 182.286C108.605 204.063 86.988 216.971 64.1914 217.895C51.359 199.068 48.8755 174.043 59.8613 152.268V152.267C70.8437 130.491 92.4631 117.582 115.259 116.657Z" fill="url(#paint11_linear_4571_12762)" stroke="white" stroke-width="2"/>
<path d="M115.852 116.776C136.507 126.443 151.428 146.708 153.101 171.032C154.773 195.355 142.769 217.463 123.631 229.858C102.977 220.191 88.0559 199.928 86.3838 175.604C84.7118 151.281 96.713 129.172 115.852 116.776Z" fill="url(#paint12_linear_4571_12762)" stroke="white" stroke-width="2"/>
<path d="M115.852 116.776C136.507 126.443 151.428 146.708 153.101 171.032C154.773 195.355 142.769 217.463 123.631 229.858C102.977 220.191 88.0559 199.928 86.3838 175.604C84.7118 151.281 96.713 129.172 115.852 116.776Z" fill="url(#paint13_linear_4571_12762)" stroke="white" stroke-width="2"/>
<path d="M116.422 116.575C139.131 114.38 162.317 124.218 176.179 144.292C190.04 164.366 191.007 189.493 180.875 209.896C158.166 212.09 134.984 202.254 121.119 182.18C107.255 162.11 106.29 136.981 116.422 116.575Z" fill="url(#paint14_linear_4571_12762)" stroke="white" stroke-width="2"/>
<path d="M116.422 116.575C139.131 114.38 162.317 124.218 176.179 144.292C190.04 164.366 191.007 189.493 180.875 209.896C158.166 212.09 134.984 202.254 121.119 182.18C107.255 162.11 106.29 136.981 116.422 116.575Z" fill="url(#paint15_linear_4571_12762)" stroke="white" stroke-width="2"/>
<path d="M116.812 116.115C135.224 102.668 160.196 99.3329 182.375 109.546C204.553 119.759 218.217 140.883 219.924 163.589C201.513 177.036 176.541 180.372 154.362 170.159C132.184 159.946 118.519 138.821 116.812 116.115Z" fill="url(#paint16_linear_4571_12762)" stroke="white" stroke-width="2"/>
<path d="M116.812 116.115C135.224 102.668 160.196 99.3329 182.375 109.546C204.553 119.759 218.217 140.883 219.924 163.589C201.513 177.036 176.541 180.372 154.362 170.159C132.184 159.946 118.519 138.821 116.812 116.115Z" fill="url(#paint17_linear_4571_12762)" stroke="white" stroke-width="2"/>
<path d="M169.954 76.502C194.249 73.9981 216.796 85.2178 229.862 103.884C220.894 124.82 201.119 140.397 176.82 142.9C152.522 145.4 129.978 134.185 116.912 115.519C125.88 94.5828 145.659 79.0058 169.954 76.502Z" fill="url(#paint18_linear_4571_12762)" stroke="white" stroke-width="2"/>
<path d="M169.954 76.502C194.249 73.9981 216.796 85.2178 229.862 103.884C220.894 124.82 201.119 140.397 176.82 142.9C152.522 145.4 129.978 134.185 116.912 115.519C125.88 94.5828 145.659 79.0058 169.954 76.502Z" fill="url(#paint19_linear_4571_12762)" stroke="white" stroke-width="2"/>
<path d="M142.392 54.3916C162.014 39.8739 187.141 38.0472 207.916 47.4561C210.892 70.0301 201.84 93.4989 182.218 108.017C162.591 122.538 137.467 124.36 116.692 114.95C113.717 92.3767 122.77 68.909 142.392 54.3916Z" fill="url(#paint20_linear_4571_12762)" stroke="white" stroke-width="2"/>
<path d="M142.392 54.3916C162.014 39.8739 187.141 38.0472 207.916 47.4561C210.892 70.0301 201.84 93.4989 182.218 108.017C162.591 122.538 137.467 124.36 116.692 114.95C113.717 92.3767 122.77 68.909 142.392 54.3916Z" fill="url(#paint21_linear_4571_12762)" stroke="white" stroke-width="2"/>
<path d="M160.22 10.0869C174.311 27.9944 178.506 52.7898 169.042 75.2646C159.578 97.7435 138.894 112.1 116.217 114.578C102.126 96.6705 97.9303 71.8752 107.395 49.4004C116.859 26.9253 137.543 12.5651 160.22 10.0869Z" fill="url(#paint22_linear_4571_12762)" stroke="white" stroke-width="2"/>
<path d="M160.22 10.0869C174.311 27.9944 178.506 52.7898 169.042 75.2646C159.578 97.7435 138.894 112.1 116.217 114.578C102.126 96.6705 97.9303 71.8752 107.395 49.4004C116.859 26.9253 137.543 12.5651 160.22 10.0869Z" fill="url(#paint23_linear_4571_12762)" stroke="white" stroke-width="2"/>
</g>
<defs>
<linearGradient id="paint0_linear_4571_12762" x1="131.008" y1="12.8368" x2="89.3317" y2="103.334" gradientUnits="userSpaceOnUse">
<stop stop-color="#77C2C3"/>
<stop offset="1" stop-color="#0A9B9D"/>
</linearGradient>
<linearGradient id="paint1_linear_4571_12762" x1="131.008" y1="12.8368" x2="89.3317" y2="103.334" gradientUnits="userSpaceOnUse">
<stop stop-color="#77C2C3"/>
<stop offset="1" stop-color="#0A9B9D"/>
</linearGradient>
<linearGradient id="paint2_linear_4571_12762" x1="86.2396" y1="16.1172" x2="86.2396" y2="115.681" gradientUnits="userSpaceOnUse">
<stop stop-color="#77C2C3"/>
<stop offset="1" stop-color="#0A9B9D"/>
</linearGradient>
<linearGradient id="paint3_linear_4571_12762" x1="86.2396" y1="16.1172" x2="86.2396" y2="115.681" gradientUnits="userSpaceOnUse">
<stop stop-color="#77C2C3"/>
<stop offset="1" stop-color="#0A9B9D"/>
</linearGradient>
<linearGradient id="paint4_linear_4571_12762" x1="64.9642" y1="49.6348" x2="64.9642" y2="126.125" gradientUnits="userSpaceOnUse">
<stop stop-color="#77C2C3"/>
<stop offset="1" stop-color="#0A9B9D"/>
</linearGradient>
<linearGradient id="paint5_linear_4571_12762" x1="64.9642" y1="49.6348" x2="64.9642" y2="126.125" gradientUnits="userSpaceOnUse">
<stop stop-color="#77C2C3"/>
<stop offset="1" stop-color="#0A9B9D"/>
</linearGradient>
<linearGradient id="paint6_linear_4571_12762" x1="57.8851" y1="83.2246" x2="57.8851" y2="152.014" gradientUnits="userSpaceOnUse">
<stop stop-color="#77C2C3"/>
<stop offset="1" stop-color="#0A9B9D"/>
</linearGradient>
<linearGradient id="paint7_linear_4571_12762" x1="57.8851" y1="83.2246" x2="57.8851" y2="152.014" gradientUnits="userSpaceOnUse">
<stop stop-color="#77C2C3"/>
<stop offset="1" stop-color="#0A9B9D"/>
</linearGradient>
<linearGradient id="paint8_linear_4571_12762" x1="66.991" y1="107.465" x2="66.991" y2="186.142" gradientUnits="userSpaceOnUse">
<stop stop-color="#77C2C3"/>
<stop offset="1" stop-color="#0A9B9D"/>
</linearGradient>
<linearGradient id="paint9_linear_4571_12762" x1="66.991" y1="107.465" x2="66.991" y2="186.142" gradientUnits="userSpaceOnUse">
<stop stop-color="#77C2C3"/>
<stop offset="1" stop-color="#0A9B9D"/>
</linearGradient>
<linearGradient id="paint10_linear_4571_12762" x1="89.7264" y1="115.637" x2="89.7264" y2="218.916" gradientUnits="userSpaceOnUse">
<stop stop-color="#77C2C3"/>
<stop offset="1" stop-color="#0A9B9D"/>
</linearGradient>
<linearGradient id="paint11_linear_4571_12762" x1="89.7264" y1="115.637" x2="89.7264" y2="218.916" gradientUnits="userSpaceOnUse">
<stop stop-color="#77C2C3"/>
<stop offset="1" stop-color="#0A9B9D"/>
</linearGradient>
<linearGradient id="paint12_linear_4571_12762" x1="119.742" y1="115.637" x2="119.742" y2="231" gradientUnits="userSpaceOnUse">
<stop stop-color="#77C2C3"/>
<stop offset="1" stop-color="#0A9B9D"/>
</linearGradient>
<linearGradient id="paint13_linear_4571_12762" x1="119.742" y1="115.637" x2="119.742" y2="231" gradientUnits="userSpaceOnUse">
<stop stop-color="#77C2C3"/>
<stop offset="1" stop-color="#0A9B9D"/>
</linearGradient>
<linearGradient id="paint14_linear_4571_12762" x1="148.648" y1="115.271" x2="148.648" y2="211.2" gradientUnits="userSpaceOnUse">
<stop stop-color="#77C2C3"/>
<stop offset="1" stop-color="#0A9B9D"/>
</linearGradient>
<linearGradient id="paint15_linear_4571_12762" x1="148.648" y1="115.271" x2="148.648" y2="211.2" gradientUnits="userSpaceOnUse">
<stop stop-color="#77C2C3"/>
<stop offset="1" stop-color="#0A9B9D"/>
</linearGradient>
<linearGradient id="paint16_linear_4571_12762" x1="168.369" y1="102.572" x2="168.369" y2="177.133" gradientUnits="userSpaceOnUse">
<stop stop-color="#77C2C3"/>
<stop offset="1" stop-color="#0A9B9D"/>
</linearGradient>
<linearGradient id="paint17_linear_4571_12762" x1="168.369" y1="102.572" x2="168.369" y2="177.133" gradientUnits="userSpaceOnUse">
<stop stop-color="#77C2C3"/>
<stop offset="1" stop-color="#0A9B9D"/>
</linearGradient>
<linearGradient id="paint18_linear_4571_12762" x1="173.387" y1="75.1543" x2="173.387" y2="144.248" gradientUnits="userSpaceOnUse">
<stop stop-color="#77C2C3"/>
<stop offset="1" stop-color="#0A9B9D"/>
</linearGradient>
<linearGradient id="paint19_linear_4571_12762" x1="173.387" y1="75.1543" x2="173.387" y2="144.248" gradientUnits="userSpaceOnUse">
<stop stop-color="#77C2C3"/>
<stop offset="1" stop-color="#0A9B9D"/>
</linearGradient>
<linearGradient id="paint20_linear_4571_12762" x1="162.305" y1="40.6484" x2="162.305" y2="121.76" gradientUnits="userSpaceOnUse">
<stop stop-color="#77C2C3"/>
<stop offset="1" stop-color="#0A9B9D"/>
</linearGradient>
<linearGradient id="paint21_linear_4571_12762" x1="162.305" y1="40.6484" x2="162.305" y2="121.76" gradientUnits="userSpaceOnUse">
<stop stop-color="#77C2C3"/>
<stop offset="1" stop-color="#0A9B9D"/>
</linearGradient>
<linearGradient id="paint22_linear_4571_12762" x1="138.218" y1="9.0332" x2="138.218" y2="115.632" gradientUnits="userSpaceOnUse">
<stop stop-color="#77C2C3"/>
<stop offset="1" stop-color="#0A9B9D"/>
</linearGradient>
<linearGradient id="paint23_linear_4571_12762" x1="138.218" y1="9.0332" x2="138.218" y2="115.632" gradientUnits="userSpaceOnUse">
<stop stop-color="#77C2C3"/>
<stop offset="1" stop-color="#0A9B9D"/>
</linearGradient>
<clipPath id="clip0_4571_12762">
<rect width="231" height="231" fill="white"/>
</clipPath>
</defs>
</svg>
