<svg width="231" height="231" viewBox="0 0 231 231" fill="none" xmlns="http://www.w3.org/2000/svg">
<g opacity="0.2" clip-path="url(#clip0_4571_12372)">
<path d="M104.305 1.67003C125.269 10.6215 140.857 30.3623 143.348 54.6173C145.838 78.8721 134.589 101.38 115.882 114.429C94.9181 105.477 79.3301 85.7378 76.8399 61.4832C74.3497 37.2284 85.6023 14.7176 104.305 1.67003Z" stroke="white" stroke-width="2"/>
<path d="M104.305 1.67003C125.269 10.6215 140.857 30.3623 143.348 54.6173C145.838 78.8721 134.589 101.38 115.882 114.429C94.9181 105.477 79.3301 85.7378 76.8399 61.4832C74.3497 37.2284 85.6023 14.7176 104.305 1.67003Z" stroke="white" stroke-width="2"/>
<path d="M57.2905 17.1445C80.0964 16.5056 102.551 27.9089 115.004 48.8838C127.457 69.8577 126.697 94.9886 115.188 114.652C92.3822 115.291 69.9273 103.89 57.4741 82.915C45.0214 61.9409 45.7846 36.8049 57.2905 17.1445Z" stroke="white" stroke-width="2"/>
<path d="M57.2905 17.1445C80.0964 16.5056 102.551 27.9089 115.004 48.8838C127.457 69.8577 126.697 94.9886 115.188 114.652C92.3822 115.291 69.9273 103.89 57.4741 82.915C45.0214 61.9409 45.7846 36.8049 57.2905 17.1445Z" stroke="white" stroke-width="2"/>
<path d="M15.1572 60.6719C34.4485 48.5164 59.5906 46.8958 81.0176 58.6025C102.444 70.3052 114.624 92.3165 114.77 115.087C95.4784 127.242 70.3378 128.864 48.9111 117.157C27.4846 105.451 15.3025 83.4425 15.1572 60.6719Z" stroke="white" stroke-width="2"/>
<path d="M15.1572 60.6719C34.4485 48.5164 59.5906 46.8958 81.0176 58.6025C102.444 70.3052 114.624 92.3165 114.77 115.087C95.4784 127.242 70.3378 128.864 48.9111 117.157C27.4846 105.451 15.3025 83.4425 15.1572 60.6719Z" stroke="white" stroke-width="2"/>
<path d="M56.7393 84.2637C81.1506 83.4255 102.872 96.1614 114.626 115.676C104.241 135.949 83.4433 150.141 59.0312 150.976C34.6188 151.81 12.8957 139.077 1.14258 119.562C11.5313 99.2851 32.3274 85.0983 56.7393 84.2637Z" stroke="white" stroke-width="2"/>
<path d="M56.7393 84.2637C81.1506 83.4255 102.872 96.1614 114.626 115.676C104.241 135.949 83.4433 150.141 59.0312 150.976C34.6188 151.81 12.8957 139.077 1.14258 119.562C11.5313 99.2851 32.3274 85.0983 56.7393 84.2637Z" stroke="white" stroke-width="2"/>
<path d="M48.9629 118.691C69.5352 105.55 94.728 105.445 114.814 116.254C116.231 138.979 105.591 161.769 85.0156 174.914C64.4393 188.059 39.2462 188.16 19.167 177.354C17.7693 154.983 28.0587 132.554 47.998 119.319L48.9629 118.691Z" stroke="white" stroke-width="2"/>
<path d="M48.9629 118.691C69.5352 105.55 94.728 105.445 114.814 116.254C116.231 138.979 105.591 161.769 85.0156 174.914C64.4393 188.059 39.2462 188.16 19.167 177.354C17.7693 154.983 28.0587 132.554 47.998 119.319L48.9629 118.691Z" stroke="white" stroke-width="2"/>
<path d="M115.259 116.657C128.092 135.484 130.578 160.51 119.592 182.286C108.605 204.063 86.988 216.971 64.1914 217.895C51.359 199.068 48.8755 174.043 59.8613 152.268V152.267C70.8437 130.491 92.4631 117.582 115.259 116.657Z" stroke="white" stroke-width="2"/>
<path d="M115.259 116.657C128.092 135.484 130.578 160.51 119.592 182.286C108.605 204.063 86.988 216.971 64.1914 217.895C51.359 199.068 48.8755 174.043 59.8613 152.268V152.267C70.8437 130.491 92.4631 117.582 115.259 116.657Z" stroke="white" stroke-width="2"/>
<path d="M115.851 116.776C136.506 126.443 151.428 146.708 153.1 171.032C154.772 195.355 142.769 217.463 123.63 229.858C102.976 220.191 88.0554 199.928 86.3833 175.604C84.7113 151.281 96.7125 129.172 115.851 116.776Z" stroke="white" stroke-width="2"/>
<path d="M115.851 116.776C136.506 126.443 151.428 146.708 153.1 171.032C154.772 195.355 142.769 217.463 123.63 229.858C102.976 220.191 88.0554 199.928 86.3833 175.604C84.7113 151.281 96.7125 129.172 115.851 116.776Z" stroke="white" stroke-width="2"/>
<path d="M116.422 116.575C139.132 114.38 162.318 124.218 176.179 144.292C190.04 164.366 191.007 189.493 180.875 209.896C158.167 212.09 134.984 202.254 121.12 182.18C107.255 162.11 106.29 136.981 116.422 116.575Z" stroke="white" stroke-width="2"/>
<path d="M116.422 116.575C139.132 114.38 162.318 124.218 176.179 144.292C190.04 164.366 191.007 189.493 180.875 209.896C158.167 212.09 134.984 202.254 121.12 182.18C107.255 162.11 106.29 136.981 116.422 116.575Z" stroke="white" stroke-width="2"/>
<path d="M116.812 116.115C135.223 102.668 160.196 99.3329 182.375 109.546C204.553 119.759 218.217 140.883 219.923 163.589C201.512 177.036 176.54 180.372 154.362 170.159C132.183 159.946 118.518 138.821 116.812 116.115Z" stroke="white" stroke-width="2"/>
<path d="M116.812 116.115C135.223 102.668 160.196 99.3329 182.375 109.546C204.553 119.759 218.217 140.883 219.923 163.589C201.512 177.036 176.54 180.372 154.362 170.159C132.183 159.946 118.518 138.821 116.812 116.115Z" stroke="white" stroke-width="2"/>
<path d="M169.954 76.502C194.248 73.9981 216.796 85.2178 229.862 103.884C220.894 124.82 201.118 140.397 176.82 142.9C152.521 145.4 129.977 134.185 116.912 115.519C125.88 94.5828 145.659 79.0058 169.954 76.502Z" stroke="white" stroke-width="2"/>
<path d="M169.954 76.502C194.248 73.9981 216.796 85.2178 229.862 103.884C220.894 124.82 201.118 140.397 176.82 142.9C152.521 145.4 129.977 134.185 116.912 115.519C125.88 94.5828 145.659 79.0058 169.954 76.502Z" stroke="white" stroke-width="2"/>
<path d="M142.392 54.3916C162.014 39.8739 187.141 38.0472 207.916 47.4561C210.892 70.0301 201.84 93.4989 182.218 108.017C162.591 122.538 137.467 124.36 116.692 114.95C113.717 92.3767 122.77 68.909 142.392 54.3916Z" stroke="white" stroke-width="2"/>
<path d="M142.392 54.3916C162.014 39.8739 187.141 38.0472 207.916 47.4561C210.892 70.0301 201.84 93.4989 182.218 108.017C162.591 122.538 137.467 124.36 116.692 114.95C113.717 92.3767 122.77 68.909 142.392 54.3916Z" stroke="white" stroke-width="2"/>
<path d="M160.22 10.0869C174.311 27.9944 178.506 52.7898 169.042 75.2646C159.578 97.7435 138.894 112.1 116.217 114.578C102.126 96.6705 97.9303 71.8752 107.395 49.4004C116.859 26.9253 137.543 12.5651 160.22 10.0869Z" stroke="white" stroke-width="2"/>
<path d="M160.22 10.0869C174.311 27.9944 178.506 52.7898 169.042 75.2646C159.578 97.7435 138.894 112.1 116.217 114.578C102.126 96.6705 97.9303 71.8752 107.395 49.4004C116.859 26.9253 137.543 12.5651 160.22 10.0869Z" stroke="white" stroke-width="2"/>
</g>
<defs>
<clipPath id="clip0_4571_12372">
<rect width="231" height="231" fill="white"/>
</clipPath>
</defs>
</svg>
