<svg width="40" height="45" viewBox="0 0 40 45" fill="none" xmlns="http://www.w3.org/2000/svg">
<g filter="url(#filter0_ddddd_4561_8846)">
<rect x="4" width="32" height="32" rx="16" fill="#BDA193"/>
<path fill-rule="evenodd" clip-rule="evenodd" d="M22.3333 7C23.0697 7 23.6667 7.59695 23.6667 8.33333L23.6667 12.3333C23.6667 13.0697 23.0697 13.6667 22.3333 13.6667C21.597 13.6667 21 13.0697 21 12.3333L21 8.33333C21 7.59695 21.597 7 22.3333 7Z" fill="#4B3425"/>
<path fill-rule="evenodd" clip-rule="evenodd" d="M10.3333 7C11.0697 7 11.6667 7.59695 11.6667 8.33333L11.6667 12.3333C11.6667 13.0697 11.0697 13.6667 10.3333 13.6667C9.59695 13.6667 9 13.0697 9 12.3333L9 8.33333C9 7.59695 9.59695 7 10.3333 7Z" fill="#4B3425"/>
<path fill-rule="evenodd" clip-rule="evenodd" d="M9 16.3333C9 15.597 9.59695 15 10.3333 15H26.3333C27.0697 15 27.6667 15.597 27.6667 16.3333C27.6667 17.0697 27.0697 17.6667 26.3333 17.6667H10.3333C9.59695 17.6667 9 17.0697 9 16.3333Z" fill="#4B3425"/>
</g>
<defs>
<filter id="filter0_ddddd_4561_8846" x="0" y="0" width="40" height="45" filterUnits="userSpaceOnUse" color-interpolation-filters="sRGB">
<feFlood flood-opacity="0" result="BackgroundImageFix"/>
<feColorMatrix in="SourceAlpha" type="matrix" values="0 0 0 0 0 0 0 0 0 0 0 0 0 0 0 0 0 0 127 0" result="hardAlpha"/>
<feOffset/>
<feColorMatrix type="matrix" values="0 0 0 0 0.294118 0 0 0 0 0.203922 0 0 0 0 0.145098 0 0 0 0.05 0"/>
<feBlend mode="normal" in2="BackgroundImageFix" result="effect1_dropShadow_4561_8846"/>
<feColorMatrix in="SourceAlpha" type="matrix" values="0 0 0 0 0 0 0 0 0 0 0 0 0 0 0 0 0 0 127 0" result="hardAlpha"/>
<feOffset dy="1"/>
<feGaussianBlur stdDeviation="0.5"/>
<feColorMatrix type="matrix" values="0 0 0 0 0.294118 0 0 0 0 0.203922 0 0 0 0 0.145098 0 0 0 0.05 0"/>
<feBlend mode="normal" in2="effect1_dropShadow_4561_8846" result="effect2_dropShadow_4561_8846"/>
<feColorMatrix in="SourceAlpha" type="matrix" values="0 0 0 0 0 0 0 0 0 0 0 0 0 0 0 0 0 0 127 0" result="hardAlpha"/>
<feOffset dy="2"/>
<feGaussianBlur stdDeviation="1"/>
<feColorMatrix type="matrix" values="0 0 0 0 0.294118 0 0 0 0 0.203922 0 0 0 0 0.145098 0 0 0 0.04 0"/>
<feBlend mode="normal" in2="effect2_dropShadow_4561_8846" result="effect3_dropShadow_4561_8846"/>
<feColorMatrix in="SourceAlpha" type="matrix" values="0 0 0 0 0 0 0 0 0 0 0 0 0 0 0 0 0 0 127 0" result="hardAlpha"/>
<feOffset dy="5"/>
<feGaussianBlur stdDeviation="1.5"/>
<feColorMatrix type="matrix" values="0 0 0 0 0.294118 0 0 0 0 0.203922 0 0 0 0 0.145098 0 0 0 0.03 0"/>
<feBlend mode="normal" in2="effect3_dropShadow_4561_8846" result="effect4_dropShadow_4561_8846"/>
<feColorMatrix in="SourceAlpha" type="matrix" values="0 0 0 0 0 0 0 0 0 0 0 0 0 0 0 0 0 0 127 0" result="hardAlpha"/>
<feOffset dy="9"/>
<feGaussianBlur stdDeviation="2"/>
<feColorMatrix type="matrix" values="0 0 0 0 0.294118 0 0 0 0 0.203922 0 0 0 0 0.145098 0 0 0 0.01 0"/>
<feBlend mode="normal" in2="effect4_dropShadow_4561_8846" result="effect5_dropShadow_4561_8846"/>
<feBlend mode="normal" in="SourceGraphic" in2="effect5_dropShadow_4561_8846" result="shape"/>
</filter>
</defs>
</svg>
