<svg width="64" height="64" viewBox="0 0 64 64" fill="none" xmlns="http://www.w3.org/2000/svg">
<g clip-path="url(#clip0_4571_12164)">
<rect width="64" height="64" rx="32" fill="#447374"/>
<path d="M23.962 12.6886C21.8017 16.4136 20.6668 20.6152 20.6668 24.8889L13.3335 40H21.3335V50.6667H32.0002V64H61.3335V52.3708C61.3335 47.967 63.7136 43.9872 66.4324 40.5229C67.6261 39.002 68.6458 37.3424 69.5053 35.5928C71.4007 31.7345 72.2396 27.468 71.9413 23.2042C71.643 18.9403 70.2174 14.8228 67.802 11.2481C65.3865 7.67351 62.0626 4.76221 58.1502 2.79465C54.2379 0.827084 49.869 -0.130446 45.4643 0.0142777C41.0596 0.159002 36.7676 1.4011 33.0016 3.62095C29.2355 5.8408 26.1224 8.96361 23.962 12.6886Z" fill="#E0DDDC"/>
<rect x="29.3325" y="24" width="5.33333" height="5.33333" rx="2.66667" fill="#2C2928"/>
<rect x="32.0005" y="50.666" width="29.3333" height="13.3333" fill="#2C2928"/>
</g>
<defs>
<clipPath id="clip0_4571_12164">
<rect width="64" height="64" rx="32" fill="white"/>
</clipPath>
</defs>
</svg>
